<svg width="581" height="436" xmlns="http://www.w3.org/2000/svg" xmlns:xlink="http://www.w3.org/1999/xlink" xml:space="preserve" overflow="hidden"><defs><clipPath id="clip0"><rect x="189" y="72" width="581" height="436"/></clipPath><clipPath id="clip1"><rect x="189" y="72" width="581" height="436"/></clipPath><clipPath id="clip2"><rect x="190" y="72" width="580" height="435"/></clipPath><clipPath id="clip3"><rect x="190" y="72" width="580" height="435"/></clipPath><clipPath id="clip4"><rect x="190" y="72" width="580" height="435"/></clipPath></defs><g clip-path="url(#clip0)" transform="translate(-189 -72)"><g clip-path="url(#clip1)"><g clip-path="url(#clip2)"><g clip-path="url(#clip3)"><g clip-path="url(#clip4)"><path d="M190 72 770 72 770 507 190 507Z" fill="#FFFFFF" fill-rule="nonzero" fill-opacity="1"/><g><path d="M306 72 770 72 770 333 306 333Z" stroke="#FFFFFF" stroke-width="0.77575" stroke-linecap="round" stroke-linejoin="round" stroke-miterlimit="10" stroke-opacity="1" fill="#FFFFFF" fill-rule="nonzero" fill-opacity="1"/></g><g><path d="M365.638 77.22 764.78 77.22 764.78 339.786 365.638 339.786Z" fill="#FFFFFF" fill-rule="nonzero" fill-opacity="1"/><path d="M365.638 290.399 764.78 290.399" stroke="#FFFFFF" stroke-width="0.38425" stroke-linecap="butt" stroke-linejoin="round" stroke-miterlimit="10" stroke-opacity="1" fill="none" fill-rule="nonzero"/><path d="M365.638 215.507 764.78 215.507" stroke="#FFFFFF" stroke-width="0.38425" stroke-linecap="butt" stroke-linejoin="round" stroke-miterlimit="10" stroke-opacity="1" fill="none" fill-rule="nonzero"/><path d="M365.638 140.607 764.78 140.607" stroke="#FFFFFF" stroke-width="0.38425" stroke-linecap="butt" stroke-linejoin="round" stroke-miterlimit="10" stroke-opacity="1" fill="none" fill-rule="nonzero"/><path d="M365.638 327.853 764.78 327.853" stroke="#FFFFFF" stroke-width="0.77575" stroke-linecap="butt" stroke-linejoin="round" stroke-miterlimit="10" stroke-opacity="1" fill="none" fill-rule="nonzero"/><path d="M365.638 252.953 764.78 252.953" stroke="#FFFFFF" stroke-width="0.77575" stroke-linecap="butt" stroke-linejoin="round" stroke-miterlimit="10" stroke-opacity="1" fill="none" fill-rule="nonzero"/><path d="M365.638 178.053 764.78 178.053" stroke="#FFFFFF" stroke-width="0.77575" stroke-linecap="butt" stroke-linejoin="round" stroke-miterlimit="10" stroke-opacity="1" fill="none" fill-rule="nonzero"/><path d="M365.638 103.153 764.78 103.153" stroke="#FFFFFF" stroke-width="0.77575" stroke-linecap="butt" stroke-linejoin="round" stroke-miterlimit="10" stroke-opacity="1" fill="none" fill-rule="nonzero"/><path d="M378.942 110.853 390.346 110.853 390.346 327.853 378.942 327.853Z" fill="#000000" fill-rule="nonzero" fill-opacity="1"/><path d="M397.945 197.12 409.349 197.12 409.349 327.845 397.945 327.845Z" fill="#000000" fill-rule="nonzero" fill-opacity="1"/><path d="M416.954 289.652 428.358 289.652 428.358 327.853 416.954 327.853Z" fill="#000000" fill-rule="nonzero" fill-opacity="1"/><path d="M435.964 298.04 447.368 298.04 447.368 327.853 435.964 327.853Z" fill="#000000" fill-rule="nonzero" fill-opacity="1"/><path d="M454.966 302.311 466.37 302.311 466.37 327.853 454.966 327.853Z" fill="#000000" fill-rule="nonzero" fill-opacity="1"/><path d="M473.975 303.166 485.38 303.166 485.38 327.853 473.975 327.853Z" fill="#000000" fill-rule="nonzero" fill-opacity="1"/><path d="M492.985 304.841 504.389 304.841 504.389 327.853 492.985 327.853Z" fill="#000000" fill-rule="nonzero" fill-opacity="1"/><path d="M511.987 308.227 523.391 308.227 523.391 327.853 511.987 327.853Z" fill="#000000" fill-rule="nonzero" fill-opacity="1"/><path d="M530.997 311.431 542.401 311.431 542.401 327.853 530.997 327.853Z" fill="#000000" fill-rule="nonzero" fill-opacity="1"/><path d="M549.999 312.678 561.403 312.678 561.403 327.853 549.999 327.853Z" fill="#000000" fill-rule="nonzero" fill-opacity="1"/><path d="M569.008 312.903 580.413 312.903 580.413 327.853 569.008 327.853Z" fill="#000000" fill-rule="nonzero" fill-opacity="1"/><path d="M588.018 314.73 599.422 314.73 599.422 327.853 588.018 327.853Z" fill="#000000" fill-rule="nonzero" fill-opacity="1"/><path d="M607.02 315.477 618.424 315.477 618.424 327.853 607.02 327.853Z" fill="#000000" fill-rule="nonzero" fill-opacity="1"/><path d="M626.029 316.644 637.434 316.644 637.434 327.845 626.029 327.845Z" fill="#000000" fill-rule="nonzero" fill-opacity="1"/><path d="M645.039 317.695 656.443 317.695 656.443 327.853 645.039 327.853Z" fill="#000000" fill-rule="nonzero" fill-opacity="1"/><path d="M664.041 319.058 675.445 319.058 675.445 327.853 664.041 327.853Z" fill="#000000" fill-rule="nonzero" fill-opacity="1"/><path d="M683.051 319.435 694.455 319.435 694.455 327.853 683.051 327.853Z" fill="#000000" fill-rule="nonzero" fill-opacity="1"/><path d="M702.06 319.566 713.464 319.566 713.464 327.853 702.06 327.853Z" fill="#000000" fill-rule="nonzero" fill-opacity="1"/><path d="M721.062 319.79 732.467 319.79 732.467 327.853 721.062 327.853Z" fill="#000000" fill-rule="nonzero" fill-opacity="1"/><path d="M740.072 320.182 751.476 320.182 751.476 327.853 740.072 327.853Z" fill="#000000" fill-rule="nonzero" fill-opacity="1"/><text fill="#000000" fill-opacity="1" font-family="Arial,Arial_MSFontService,sans-serif" font-style="normal" font-variant="normal" font-weight="400" font-stretch="normal" font-size="9" text-anchor="start" direction="ltr" writing-mode="lr-tb" unicode-bidi="normal" text-decoration="none" transform="matrix(0.627868 -0.3625 0.3625 0.627868 374.32 111)">14486</text><text fill="#000000" fill-opacity="1" font-family="Arial,Arial_MSFontService,sans-serif" font-style="normal" font-variant="normal" font-weight="400" font-stretch="normal" font-size="9" text-anchor="start" direction="ltr" writing-mode="lr-tb" unicode-bidi="normal" text-decoration="none" transform="matrix(0.627868 -0.3625 0.3625 0.627868 394.892 196)">8727</text><text fill="#000000" fill-opacity="1" font-family="Arial,Arial_MSFontService,sans-serif" font-style="normal" font-variant="normal" font-weight="400" font-stretch="normal" font-size="9" text-anchor="start" direction="ltr" writing-mode="lr-tb" unicode-bidi="normal" text-decoration="none" transform="matrix(0.627868 -0.3625 0.3625 0.627868 413.902 289)">2550</text><text fill="#000000" fill-opacity="1" font-family="Arial,Arial_MSFontService,sans-serif" font-style="normal" font-variant="normal" font-weight="400" font-stretch="normal" font-size="9" text-anchor="start" direction="ltr" writing-mode="lr-tb" unicode-bidi="normal" text-decoration="none" transform="matrix(0.627868 -0.3625 0.3625 0.627868 432.911 297)">1990</text><text fill="#000000" fill-opacity="1" font-family="Arial,Arial_MSFontService,sans-serif" font-style="normal" font-variant="normal" font-weight="400" font-stretch="normal" font-size="9" text-anchor="start" direction="ltr" writing-mode="lr-tb" unicode-bidi="normal" text-decoration="none" transform="matrix(0.627868 -0.3625 0.3625 0.627868 451.913 302)">1705</text><text fill="#000000" fill-opacity="1" font-family="Arial,Arial_MSFontService,sans-serif" font-style="normal" font-variant="normal" font-weight="400" font-stretch="normal" font-size="9" text-anchor="start" direction="ltr" writing-mode="lr-tb" unicode-bidi="normal" text-decoration="none" transform="matrix(0.627868 -0.3625 0.3625 0.627868 470.923 302)">1648</text><text fill="#000000" fill-opacity="1" font-family="Arial,Arial_MSFontService,sans-serif" font-style="normal" font-variant="normal" font-weight="400" font-stretch="normal" font-size="9" text-anchor="start" direction="ltr" writing-mode="lr-tb" unicode-bidi="normal" text-decoration="none" transform="matrix(0.627868 -0.3625 0.3625 0.627868 489.925 304)">1536</text><text fill="#000000" fill-opacity="1" font-family="Arial,Arial_MSFontService,sans-serif" font-style="normal" font-variant="normal" font-weight="400" font-stretch="normal" font-size="9" text-anchor="start" direction="ltr" writing-mode="lr-tb" unicode-bidi="normal" text-decoration="none" transform="matrix(0.627868 -0.3625 0.3625 0.627868 508.935 308)">1310</text><text fill="#000000" fill-opacity="1" font-family="Arial,Arial_MSFontService,sans-serif" font-style="normal" font-variant="normal" font-weight="400" font-stretch="normal" font-size="9" text-anchor="start" direction="ltr" writing-mode="lr-tb" unicode-bidi="normal" text-decoration="none" transform="matrix(0.627868 -0.3625 0.3625 0.627868 527.944 311)">1096</text><text fill="#000000" fill-opacity="1" font-family="Arial,Arial_MSFontService,sans-serif" font-style="normal" font-variant="normal" font-weight="400" font-stretch="normal" font-size="9" text-anchor="start" direction="ltr" writing-mode="lr-tb" unicode-bidi="normal" text-decoration="none" transform="matrix(0.627868 -0.3625 0.3625 0.627868 546.946 312)">1013</text><text fill="#000000" fill-opacity="1" font-family="Arial,Arial_MSFontService,sans-serif" font-style="normal" font-variant="normal" font-weight="400" font-stretch="normal" font-size="9" text-anchor="start" direction="ltr" writing-mode="lr-tb" unicode-bidi="normal" text-decoration="none" transform="matrix(0.627868 -0.3625 0.3625 0.627868 567.526 311)">998</text><text fill="#000000" fill-opacity="1" font-family="Arial,Arial_MSFontService,sans-serif" font-style="normal" font-variant="normal" font-weight="400" font-stretch="normal" font-size="9" text-anchor="start" direction="ltr" writing-mode="lr-tb" unicode-bidi="normal" text-decoration="none" transform="matrix(0.627868 -0.3625 0.3625 0.627868 586.535 313)">876</text><text fill="#000000" fill-opacity="1" font-family="Arial,Arial_MSFontService,sans-serif" font-style="normal" font-variant="normal" font-weight="400" font-stretch="normal" font-size="9" text-anchor="start" direction="ltr" writing-mode="lr-tb" unicode-bidi="normal" text-decoration="none" transform="matrix(0.627868 -0.3625 0.3625 0.627868 605.537 314)">826</text><text fill="#000000" fill-opacity="1" font-family="Arial,Arial_MSFontService,sans-serif" font-style="normal" font-variant="normal" font-weight="400" font-stretch="normal" font-size="9" text-anchor="start" direction="ltr" writing-mode="lr-tb" unicode-bidi="normal" text-decoration="none" transform="matrix(0.627868 -0.3625 0.3625 0.627868 624.547 315)">748</text><text fill="#000000" fill-opacity="1" font-family="Arial,Arial_MSFontService,sans-serif" font-style="normal" font-variant="normal" font-weight="400" font-stretch="normal" font-size="9" text-anchor="start" direction="ltr" writing-mode="lr-tb" unicode-bidi="normal" text-decoration="none" transform="matrix(0.627868 -0.3625 0.3625 0.627868 643.556 316)">678</text><text fill="#000000" fill-opacity="1" font-family="Arial,Arial_MSFontService,sans-serif" font-style="normal" font-variant="normal" font-weight="400" font-stretch="normal" font-size="9" text-anchor="start" direction="ltr" writing-mode="lr-tb" unicode-bidi="normal" text-decoration="none" transform="matrix(0.627868 -0.3625 0.3625 0.627868 662.558 317)">587</text><text fill="#000000" fill-opacity="1" font-family="Arial,Arial_MSFontService,sans-serif" font-style="normal" font-variant="normal" font-weight="400" font-stretch="normal" font-size="9" text-anchor="start" direction="ltr" writing-mode="lr-tb" unicode-bidi="normal" text-decoration="none" transform="matrix(0.627868 -0.3625 0.3625 0.627868 681.568 318)">562</text><text fill="#000000" fill-opacity="1" font-family="Arial,Arial_MSFontService,sans-serif" font-style="normal" font-variant="normal" font-weight="400" font-stretch="normal" font-size="9" text-anchor="start" direction="ltr" writing-mode="lr-tb" unicode-bidi="normal" text-decoration="none" transform="matrix(0.627868 -0.3625 0.3625 0.627868 700.57 318)">553</text><text fill="#000000" fill-opacity="1" font-family="Arial,Arial_MSFontService,sans-serif" font-style="normal" font-variant="normal" font-weight="400" font-stretch="normal" font-size="9" text-anchor="start" direction="ltr" writing-mode="lr-tb" unicode-bidi="normal" text-decoration="none" transform="matrix(0.627868 -0.3625 0.3625 0.627868 719.58 318)">538</text><text fill="#000000" fill-opacity="1" font-family="Arial,Arial_MSFontService,sans-serif" font-style="normal" font-variant="normal" font-weight="400" font-stretch="normal" font-size="9" text-anchor="start" direction="ltr" writing-mode="lr-tb" unicode-bidi="normal" text-decoration="none" transform="matrix(0.627868 -0.3625 0.3625 0.627868 738.589 319)">512</text><path d="M378.942 110.853 390.346 110.853 390.346 327.853 378.942 327.853Z" fill="#6BAED6" fill-rule="nonzero" fill-opacity="1"/><path d="M378.942 301.006 390.346 301.006 390.346 327.853 378.942 327.853Z" fill="#FC8D59" fill-rule="nonzero" fill-opacity="1"/><path d="M378.942 311.91 390.346 311.91 390.346 327.845 378.942 327.845Z" fill="#78C679" fill-rule="nonzero" fill-opacity="1"/><path d="M378.942 321.871 390.346 321.871 390.346 327.845 378.942 327.845Z" fill="#EE6A50" fill-rule="nonzero" fill-opacity="1"/><path d="M378.942 326.91 390.346 326.91 390.346 327.853 378.942 327.853Z" fill="#969696" fill-rule="nonzero" fill-opacity="1"/><path d="M378.942 327.084 390.346 327.084 390.346 327.845 378.942 327.845Z" fill="#66C2A4" fill-rule="nonzero" fill-opacity="1"/><path d="M378.942 327.251 390.346 327.251 390.346 327.853 378.942 327.853Z" fill="#FFC125" fill-rule="nonzero" fill-opacity="1"/><path d="M378.942 327.795 390.346 327.795 390.346 327.853 378.942 327.853Z" fill="#E9967A" fill-rule="nonzero" fill-opacity="1"/><path d="M397.945 197.12 409.349 197.12 409.349 327.845 397.945 327.845Z" fill="#6BAED6" fill-rule="nonzero" fill-opacity="1"/><path d="M397.945 240.94 409.349 240.94 409.349 327.853 397.945 327.853Z" fill="#FC8D59" fill-rule="nonzero" fill-opacity="1"/><path d="M397.945 273.876 409.349 273.876 409.349 327.845 397.945 327.845Z" fill="#78C679" fill-rule="nonzero" fill-opacity="1"/><path d="M397.945 303.239 409.349 303.239 409.349 327.853 397.945 327.853Z" fill="#EE6A50" fill-rule="nonzero" fill-opacity="1"/><path d="M397.945 322.995 409.349 322.995 409.349 327.845 397.945 327.845Z" fill="#969696" fill-rule="nonzero" fill-opacity="1"/><path d="M397.945 323.372 409.349 323.372 409.349 327.853 397.945 327.853Z" fill="#66C2A4" fill-rule="nonzero" fill-opacity="1"/><path d="M397.945 324.634 409.349 324.634 409.349 327.853 397.945 327.853Z" fill="#FFC125" fill-rule="nonzero" fill-opacity="1"/><path d="M397.945 326.801 409.349 326.801 409.349 327.853 397.945 327.853Z" fill="#E9967A" fill-rule="nonzero" fill-opacity="1"/><path d="M416.954 289.652 428.358 289.652 428.358 327.853 416.954 327.853Z" fill="#6BAED6" fill-rule="nonzero" fill-opacity="1"/><path d="M416.954 317.992 428.358 317.992 428.358 327.853 416.954 327.853Z" fill="#FC8D59" fill-rule="nonzero" fill-opacity="1"/><path d="M416.954 321.407 428.358 321.407 428.358 327.845 416.954 327.845Z" fill="#78C679" fill-rule="nonzero" fill-opacity="1"/><path d="M416.954 325.322 428.358 325.322 428.358 327.853 416.954 327.853Z" fill="#EE6A50" fill-rule="nonzero" fill-opacity="1"/><path d="M416.954 327.584 428.358 327.584 428.358 327.853 416.954 327.853Z" fill="#969696" fill-rule="nonzero" fill-opacity="1"/><path d="M416.954 327.642 428.358 327.642 428.358 327.853 416.954 327.853Z" fill="#66C2A4" fill-rule="nonzero" fill-opacity="1"/><path d="M416.954 327.671 428.358 327.671 428.358 327.853 416.954 327.853Z" fill="#FFC125" fill-rule="nonzero" fill-opacity="1"/><path d="M416.954 327.795 428.358 327.795 428.358 327.853 416.954 327.853Z" fill="#E9967A" fill-rule="nonzero" fill-opacity="1"/><path d="M435.964 298.04 447.368 298.04 447.368 327.853 435.964 327.853Z" fill="#6BAED6" fill-rule="nonzero" fill-opacity="1"/><path d="M435.964 310.808 447.368 310.808 447.368 327.853 435.964 327.853Z" fill="#FC8D59" fill-rule="nonzero" fill-opacity="1"/><path d="M435.964 316.854 447.368 316.854 447.368 327.853 435.964 327.853Z" fill="#78C679" fill-rule="nonzero" fill-opacity="1"/><path d="M435.964 323.749 447.368 323.749 447.368 327.853 435.964 327.853Z" fill="#EE6A50" fill-rule="nonzero" fill-opacity="1"/><path d="M435.964 327.251 447.368 327.251 447.368 327.853 435.964 327.853Z" fill="#969696" fill-rule="nonzero" fill-opacity="1"/><path d="M435.964 327.359 447.368 327.359 447.368 327.853 435.964 327.853Z" fill="#66C2A4" fill-rule="nonzero" fill-opacity="1"/><path d="M435.964 327.461 447.368 327.461 447.368 327.853 435.964 327.853Z" fill="#FFC125" fill-rule="nonzero" fill-opacity="1"/><path d="M435.964 327.729 447.368 327.729 447.368 327.853 435.964 327.853Z" fill="#E9967A" fill-rule="nonzero" fill-opacity="1"/><path d="M454.966 302.311 466.37 302.311 466.37 327.853 454.966 327.853Z" fill="#6BAED6" fill-rule="nonzero" fill-opacity="1"/><path d="M454.966 318.217 466.37 318.217 466.37 327.853 454.966 327.853Z" fill="#FC8D59" fill-rule="nonzero" fill-opacity="1"/><path d="M454.966 322.023 466.37 322.023 466.37 327.853 454.966 327.853Z" fill="#78C679" fill-rule="nonzero" fill-opacity="1"/><path d="M454.966 326.04 466.37 326.04 466.37 327.853 454.966 327.853Z" fill="#EE6A50" fill-rule="nonzero" fill-opacity="1"/><path d="M454.966 327.57 466.37 327.57 466.37 327.853 454.966 327.853Z" fill="#969696" fill-rule="nonzero" fill-opacity="1"/><path d="M454.966 327.642 466.37 327.642 466.37 327.853 454.966 327.853Z" fill="#66C2A4" fill-rule="nonzero" fill-opacity="1"/><path d="M454.966 327.686 466.37 327.686 466.37 327.853 454.966 327.853Z" fill="#FFC125" fill-rule="nonzero" fill-opacity="1"/><path d="M473.975 303.166 485.38 303.166 485.38 327.853 473.975 327.853Z" fill="#6BAED6" fill-rule="nonzero" fill-opacity="1"/><path d="M473.975 312.62 485.38 312.62 485.38 327.853 473.975 327.853Z" fill="#FC8D59" fill-rule="nonzero" fill-opacity="1"/><path d="M473.975 319.196 485.38 319.196 485.38 327.853 473.975 327.853Z" fill="#78C679" fill-rule="nonzero" fill-opacity="1"/><path d="M473.975 324.597 485.38 324.597 485.38 327.845 473.975 327.845Z" fill="#EE6A50" fill-rule="nonzero" fill-opacity="1"/><path d="M473.975 327.389 485.38 327.389 485.38 327.853 473.975 327.853Z" fill="#969696" fill-rule="nonzero" fill-opacity="1"/><path d="M473.975 327.476 485.38 327.476 485.38 327.853 473.975 327.853Z" fill="#66C2A4" fill-rule="nonzero" fill-opacity="1"/><path d="M473.975 327.613 485.38 327.613 485.38 327.853 473.975 327.853Z" fill="#FFC125" fill-rule="nonzero" fill-opacity="1"/><path d="M473.975 327.838 485.38 327.838 485.38 327.853 473.975 327.853Z" fill="#E9967A" fill-rule="nonzero" fill-opacity="1"/><path d="M492.985 304.841 504.389 304.841 504.389 327.853 492.985 327.853Z" fill="#6BAED6" fill-rule="nonzero" fill-opacity="1"/><path d="M492.985 311.555 504.389 311.555 504.389 327.853 492.985 327.853Z" fill="#FC8D59" fill-rule="nonzero" fill-opacity="1"/><path d="M492.985 316.738 504.389 316.738 504.389 327.853 492.985 327.853Z" fill="#78C679" fill-rule="nonzero" fill-opacity="1"/><path d="M492.985 322.923 504.389 322.923 504.389 327.853 492.985 327.853Z" fill="#EE6A50" fill-rule="nonzero" fill-opacity="1"/><path d="M492.985 327.28 504.389 327.28 504.389 327.853 492.985 327.853Z" fill="#969696" fill-rule="nonzero" fill-opacity="1"/><path d="M492.985 327.359 504.389 327.359 504.389 327.853 492.985 327.853Z" fill="#66C2A4" fill-rule="nonzero" fill-opacity="1"/><path d="M492.985 327.476 504.389 327.476 504.389 327.853 492.985 327.853Z" fill="#FFC125" fill-rule="nonzero" fill-opacity="1"/><path d="M492.985 327.729 504.389 327.729 504.389 327.853 492.985 327.853Z" fill="#E9967A" fill-rule="nonzero" fill-opacity="1"/><path d="M511.987 308.227 523.391 308.227 523.391 327.853 511.987 327.853Z" fill="#6BAED6" fill-rule="nonzero" fill-opacity="1"/><path d="M511.987 317.202 523.391 317.202 523.391 327.853 511.987 327.853Z" fill="#FC8D59" fill-rule="nonzero" fill-opacity="1"/><path d="M511.987 320.914 523.391 320.914 523.391 327.853 511.987 327.853Z" fill="#78C679" fill-rule="nonzero" fill-opacity="1"/><path d="M511.987 324.989 523.391 324.989 523.391 327.853 511.987 327.853Z" fill="#EE6A50" fill-rule="nonzero" fill-opacity="1"/><path d="M511.987 327.374 523.391 327.374 523.391 327.853 511.987 327.853Z" fill="#969696" fill-rule="nonzero" fill-opacity="1"/><path d="M511.987 327.432 523.391 327.432 523.391 327.853 511.987 327.853Z" fill="#66C2A4" fill-rule="nonzero" fill-opacity="1"/><path d="M511.987 327.49 523.391 327.49 523.391 327.853 511.987 327.853Z" fill="#FFC125" fill-rule="nonzero" fill-opacity="1"/><path d="M511.987 327.758 523.391 327.758 523.391 327.845 511.987 327.845Z" fill="#E9967A" fill-rule="nonzero" fill-opacity="1"/><path d="M530.997 311.431 542.401 311.431 542.401 327.853 530.997 327.853Z" fill="#6BAED6" fill-rule="nonzero" fill-opacity="1"/><path d="M530.997 315.419 542.401 315.419 542.401 327.853 530.997 327.853Z" fill="#FC8D59" fill-rule="nonzero" fill-opacity="1"/><path d="M530.997 320.255 542.401 320.255 542.401 327.853 530.997 327.853Z" fill="#78C679" fill-rule="nonzero" fill-opacity="1"/><path d="M530.997 325.366 542.401 325.366 542.401 327.853 530.997 327.853Z" fill="#EE6A50" fill-rule="nonzero" fill-opacity="1"/><path d="M530.997 327.584 542.401 327.584 542.401 327.853 530.997 327.853Z" fill="#969696" fill-rule="nonzero" fill-opacity="1"/><path d="M530.997 327.613 542.401 327.613 542.401 327.853 530.997 327.853Z" fill="#66C2A4" fill-rule="nonzero" fill-opacity="1"/><path d="M530.997 327.642 542.401 327.642 542.401 327.853 530.997 327.853Z" fill="#FFC125" fill-rule="nonzero" fill-opacity="1"/><path d="M549.999 312.678 561.403 312.678 561.403 327.853 549.999 327.853Z" fill="#6BAED6" fill-rule="nonzero" fill-opacity="1"/><path d="M549.999 317.384 561.403 317.384 561.403 327.853 549.999 327.853Z" fill="#FC8D59" fill-rule="nonzero" fill-opacity="1"/><path d="M549.999 320.392 561.403 320.392 561.403 327.853 549.999 327.853Z" fill="#78C679" fill-rule="nonzero" fill-opacity="1"/><path d="M549.999 324.808 561.403 324.808 561.403 327.845 549.999 327.845Z" fill="#EE6A50" fill-rule="nonzero" fill-opacity="1"/><path d="M549.999 327.7 561.403 327.7 561.403 327.853 549.999 327.853Z" fill="#969696" fill-rule="nonzero" fill-opacity="1"/><path d="M549.999 327.715 561.403 327.715 561.403 327.853 549.999 327.853Z" fill="#66C2A4" fill-rule="nonzero" fill-opacity="1"/><path d="M549.999 327.744 561.403 327.744 561.403 327.845 549.999 327.845Z" fill="#FFC125" fill-rule="nonzero" fill-opacity="1"/><path d="M569.008 312.903 580.413 312.903 580.413 327.853 569.008 327.853Z" fill="#6BAED6" fill-rule="nonzero" fill-opacity="1"/><path d="M569.008 317.05 580.413 317.05 580.413 327.853 569.008 327.853Z" fill="#FC8D59" fill-rule="nonzero" fill-opacity="1"/><path d="M569.008 320.168 580.413 320.168 580.413 327.853 569.008 327.853Z" fill="#78C679" fill-rule="nonzero" fill-opacity="1"/><path d="M569.008 324.858 580.413 324.858 580.413 327.853 569.008 327.853Z" fill="#EE6A50" fill-rule="nonzero" fill-opacity="1"/><path d="M569.008 327.657 580.413 327.657 580.413 327.853 569.008 327.853Z" fill="#969696" fill-rule="nonzero" fill-opacity="1"/><path d="M569.008 327.7 580.413 327.7 580.413 327.853 569.008 327.853Z" fill="#66C2A4" fill-rule="nonzero" fill-opacity="1"/><path d="M569.008 327.729 580.413 327.729 580.413 327.853 569.008 327.853Z" fill="#FFC125" fill-rule="nonzero" fill-opacity="1"/><path d="M569.008 327.838 580.413 327.838 580.413 327.853 569.008 327.853Z" fill="#E9967A" fill-rule="nonzero" fill-opacity="1"/><path d="M588.018 314.73 599.422 314.73 599.422 327.853 588.018 327.853Z" fill="#6BAED6" fill-rule="nonzero" fill-opacity="1"/><path d="M588.018 320.958 599.422 320.958 599.422 327.845 588.018 327.845Z" fill="#FC8D59" fill-rule="nonzero" fill-opacity="1"/><path d="M588.018 323.669 599.422 323.669 599.422 327.845 588.018 327.845Z" fill="#78C679" fill-rule="nonzero" fill-opacity="1"/><path d="M588.018 326.504 599.422 326.504 599.422 327.853 588.018 327.853Z" fill="#EE6A50" fill-rule="nonzero" fill-opacity="1"/><path d="M588.018 327.686 599.422 327.686 599.422 327.853 588.018 327.853Z" fill="#969696" fill-rule="nonzero" fill-opacity="1"/><path d="M588.018 327.7 599.422 327.7 599.422 327.853 588.018 327.853Z" fill="#66C2A4" fill-rule="nonzero" fill-opacity="1"/><path d="M588.018 327.773 599.422 327.773 599.422 327.845 588.018 327.845Z" fill="#FFC125" fill-rule="nonzero" fill-opacity="1"/><path d="M588.018 327.838 599.422 327.838 599.422 327.853 588.018 327.853Z" fill="#E9967A" fill-rule="nonzero" fill-opacity="1"/><path d="M607.02 315.477 618.424 315.477 618.424 327.853 607.02 327.853Z" fill="#6BAED6" fill-rule="nonzero" fill-opacity="1"/><path d="M607.02 321.531 618.424 321.531 618.424 327.853 607.02 327.853Z" fill="#FC8D59" fill-rule="nonzero" fill-opacity="1"/><path d="M607.02 323.793 618.424 323.793 618.424 327.853 607.02 327.853Z" fill="#78C679" fill-rule="nonzero" fill-opacity="1"/><path d="M607.02 325.83 618.424 325.83 618.424 327.853 607.02 327.853Z" fill="#EE6A50" fill-rule="nonzero" fill-opacity="1"/><path d="M607.02 327.519 618.424 327.519 618.424 327.845 607.02 327.845Z" fill="#969696" fill-rule="nonzero" fill-opacity="1"/><path d="M607.02 327.534 618.424 327.534 618.424 327.845 607.02 327.845Z" fill="#66C2A4" fill-rule="nonzero" fill-opacity="1"/><path d="M607.02 327.613 618.424 327.613 618.424 327.853 607.02 327.853Z" fill="#FFC125" fill-rule="nonzero" fill-opacity="1"/><path d="M607.02 327.795 618.424 327.795 618.424 327.853 607.02 327.853Z" fill="#E9967A" fill-rule="nonzero" fill-opacity="1"/><path d="M626.029 316.644 637.434 316.644 637.434 327.845 626.029 327.845Z" fill="#6BAED6" fill-rule="nonzero" fill-opacity="1"/><path d="M626.029 322.77 637.434 322.77 637.434 327.845 626.029 327.845Z" fill="#FC8D59" fill-rule="nonzero" fill-opacity="1"/><path d="M626.029 324.51 637.434 324.51 637.434 327.853 626.029 327.853Z" fill="#78C679" fill-rule="nonzero" fill-opacity="1"/><path d="M626.029 326.714 637.434 326.714 637.434 327.853 626.029 327.853Z" fill="#EE6A50" fill-rule="nonzero" fill-opacity="1"/><path d="M626.029 327.613 637.434 327.613 637.434 327.853 626.029 327.853Z" fill="#969696" fill-rule="nonzero" fill-opacity="1"/><path d="M626.029 327.642 637.434 327.642 637.434 327.853 626.029 327.853Z" fill="#66C2A4" fill-rule="nonzero" fill-opacity="1"/><path d="M626.029 327.7 637.434 327.7 637.434 327.853 626.029 327.853Z" fill="#FFC125" fill-rule="nonzero" fill-opacity="1"/><path d="M626.029 327.838 637.434 327.838 637.434 327.853 626.029 327.853Z" fill="#E9967A" fill-rule="nonzero" fill-opacity="1"/><path d="M645.039 317.695 656.443 317.695 656.443 327.853 645.039 327.853Z" fill="#6BAED6" fill-rule="nonzero" fill-opacity="1"/><path d="M645.039 323.075 656.443 323.075 656.443 327.853 645.039 327.853Z" fill="#FC8D59" fill-rule="nonzero" fill-opacity="1"/><path d="M645.039 325.156 656.443 325.156 656.443 327.853 645.039 327.853Z" fill="#78C679" fill-rule="nonzero" fill-opacity="1"/><path d="M645.039 326.954 656.443 326.954 656.443 327.853 645.039 327.853Z" fill="#EE6A50" fill-rule="nonzero" fill-opacity="1"/><path d="M645.039 327.744 656.443 327.744 656.443 327.845 645.039 327.845Z" fill="#969696" fill-rule="nonzero" fill-opacity="1"/><path d="M645.039 327.795 656.443 327.795 656.443 327.853 645.039 327.853Z" fill="#66C2A4" fill-rule="nonzero" fill-opacity="1"/><path d="M645.039 327.809 656.443 327.809 656.443 327.853 645.039 327.853Z" fill="#FFC125" fill-rule="nonzero" fill-opacity="1"/><path d="M645.039 327.838 656.443 327.838 656.443 327.853 645.039 327.853Z" fill="#E9967A" fill-rule="nonzero" fill-opacity="1"/><path d="M664.041 319.058 675.445 319.058 675.445 327.853 664.041 327.853Z" fill="#6BAED6" fill-rule="nonzero" fill-opacity="1"/><path d="M664.041 321.393 675.445 321.393 675.445 327.853 664.041 327.853Z" fill="#FC8D59" fill-rule="nonzero" fill-opacity="1"/><path d="M664.041 323.836 675.445 323.836 675.445 327.853 664.041 327.853Z" fill="#78C679" fill-rule="nonzero" fill-opacity="1"/><path d="M664.041 325.663 675.445 325.663 675.445 327.853 664.041 327.853Z" fill="#EE6A50" fill-rule="nonzero" fill-opacity="1"/><path d="M664.041 327.642 675.445 327.642 675.445 327.853 664.041 327.853Z" fill="#969696" fill-rule="nonzero" fill-opacity="1"/><path d="M664.041 327.715 675.445 327.715 675.445 327.853 664.041 327.853Z" fill="#66C2A4" fill-rule="nonzero" fill-opacity="1"/><path d="M664.041 327.729 675.445 327.729 675.445 327.853 664.041 327.853Z" fill="#FFC125" fill-rule="nonzero" fill-opacity="1"/><path d="M683.051 319.435 694.455 319.435 694.455 327.853 683.051 327.853Z" fill="#6BAED6" fill-rule="nonzero" fill-opacity="1"/><path d="M683.051 324.3 694.455 324.3 694.455 327.853 683.051 327.853Z" fill="#FC8D59" fill-rule="nonzero" fill-opacity="1"/><path d="M683.051 325.605 694.455 325.605 694.455 327.853 683.051 327.853Z" fill="#78C679" fill-rule="nonzero" fill-opacity="1"/><path d="M683.051 327.026 694.455 327.026 694.455 327.853 683.051 327.853Z" fill="#EE6A50" fill-rule="nonzero" fill-opacity="1"/><path d="M683.051 327.758 694.455 327.758 694.455 327.845 683.051 327.845Z" fill="#969696" fill-rule="nonzero" fill-opacity="1"/><path d="M683.051 327.773 694.455 327.773 694.455 327.845 683.051 327.845Z" fill="#66C2A4" fill-rule="nonzero" fill-opacity="1"/><path d="M683.051 327.795 694.455 327.795 694.455 327.853 683.051 327.853Z" fill="#FFC125" fill-rule="nonzero" fill-opacity="1"/><path d="M702.06 319.566 713.464 319.566 713.464 327.853 702.06 327.853Z" fill="#6BAED6" fill-rule="nonzero" fill-opacity="1"/><path d="M702.06 324.372 713.464 324.372 713.464 327.845 702.06 327.845Z" fill="#FC8D59" fill-rule="nonzero" fill-opacity="1"/><path d="M702.06 325.576 713.464 325.576 713.464 327.853 702.06 327.853Z" fill="#78C679" fill-rule="nonzero" fill-opacity="1"/><path d="M702.06 327.04 713.464 327.04 713.464 327.853 702.06 327.853Z" fill="#EE6A50" fill-rule="nonzero" fill-opacity="1"/><path d="M702.06 327.729 713.464 327.729 713.464 327.853 702.06 327.853Z" fill="#969696" fill-rule="nonzero" fill-opacity="1"/><path d="M702.06 327.729 713.464 327.729 713.464 327.853 702.06 327.853Z" fill="#66C2A4" fill-rule="nonzero" fill-opacity="1"/><path d="M702.06 327.773 713.464 327.773 713.464 327.845 702.06 327.845Z" fill="#FFC125" fill-rule="nonzero" fill-opacity="1"/><path d="M702.06 327.838 713.464 327.838 713.464 327.853 702.06 327.853Z" fill="#E9967A" fill-rule="nonzero" fill-opacity="1"/><path d="M721.062 319.79 732.467 319.79 732.467 327.853 721.062 327.853Z" fill="#6BAED6" fill-rule="nonzero" fill-opacity="1"/><path d="M721.062 324.017 732.467 324.017 732.467 327.853 721.062 327.853Z" fill="#FC8D59" fill-rule="nonzero" fill-opacity="1"/><path d="M721.062 325.17 732.467 325.17 732.467 327.853 721.062 327.853Z" fill="#78C679" fill-rule="nonzero" fill-opacity="1"/><path d="M721.062 326.729 732.467 326.729 732.467 327.853 721.062 327.853Z" fill="#EE6A50" fill-rule="nonzero" fill-opacity="1"/><path d="M721.062 327.715 732.467 327.715 732.467 327.853 721.062 327.853Z" fill="#969696" fill-rule="nonzero" fill-opacity="1"/><path d="M721.062 327.744 732.467 327.744 732.467 327.845 721.062 327.845Z" fill="#66C2A4" fill-rule="nonzero" fill-opacity="1"/><path d="M721.062 327.758 732.467 327.758 732.467 327.845 721.062 327.845Z" fill="#FFC125" fill-rule="nonzero" fill-opacity="1"/><path d="M721.062 327.838 732.467 327.838 732.467 327.853 721.062 327.853Z" fill="#E9967A" fill-rule="nonzero" fill-opacity="1"/><path d="M740.072 320.182 751.476 320.182 751.476 327.853 740.072 327.853Z" fill="#6BAED6" fill-rule="nonzero" fill-opacity="1"/><path d="M740.072 324.75 751.476 324.75 751.476 327.853 740.072 327.853Z" fill="#FC8D59" fill-rule="nonzero" fill-opacity="1"/><path d="M740.072 325.663 751.476 325.663 751.476 327.853 740.072 327.853Z" fill="#78C679" fill-rule="nonzero" fill-opacity="1"/><path d="M740.072 326.954 751.476 326.954 751.476 327.853 740.072 327.853Z" fill="#EE6A50" fill-rule="nonzero" fill-opacity="1"/><path d="M740.072 327.671 751.476 327.671 751.476 327.853 740.072 327.853Z" fill="#969696" fill-rule="nonzero" fill-opacity="1"/><path d="M740.072 327.715 751.476 327.715 751.476 327.853 740.072 327.853Z" fill="#66C2A4" fill-rule="nonzero" fill-opacity="1"/><path d="M740.072 327.744 751.476 327.744 751.476 327.845 740.072 327.845Z" fill="#FFC125" fill-rule="nonzero" fill-opacity="1"/><path d="M365.638 339.786 365.638 77.22" stroke="#000000" stroke-width="0.77575" stroke-linecap="butt" stroke-linejoin="round" stroke-miterlimit="10" stroke-opacity="1" fill="none" fill-rule="nonzero"/><path d="M365.638 327.853 764.78 327.853" stroke="#000000" stroke-width="0.77575" stroke-linecap="butt" stroke-linejoin="round" stroke-miterlimit="10" stroke-opacity="1" fill="none" fill-rule="nonzero"/></g><g><text fill="#4D4D4D" fill-opacity="1" font-family="Arial,Arial_MSFontService,sans-serif" font-style="normal" font-variant="normal" font-weight="400" font-stretch="normal" font-size="11" text-anchor="start" direction="ltr" writing-mode="lr-tb" unicode-bidi="normal" text-decoration="none" transform="matrix(0.725 0 0 0.725 357.707 330)">0</text><text fill="#4D4D4D" fill-opacity="1" font-family="Arial,Arial_MSFontService,sans-serif" font-style="normal" font-variant="normal" font-weight="400" font-stretch="normal" font-size="11" text-anchor="start" direction="ltr" writing-mode="lr-tb" unicode-bidi="normal" text-decoration="none" transform="matrix(0.725 0 0 0.725 344.657 255)">5000</text><text fill="#4D4D4D" fill-opacity="1" font-family="Arial,Arial_MSFontService,sans-serif" font-style="normal" font-variant="normal" font-weight="400" font-stretch="normal" font-size="11" text-anchor="start" direction="ltr" writing-mode="lr-tb" unicode-bidi="normal" text-decoration="none" transform="matrix(0.725 0 0 0.725 339.582 180)">10000</text><text fill="#4D4D4D" fill-opacity="1" font-family="Arial,Arial_MSFontService,sans-serif" font-style="normal" font-variant="normal" font-weight="400" font-stretch="normal" font-size="11" text-anchor="start" direction="ltr" writing-mode="lr-tb" unicode-bidi="normal" text-decoration="none" transform="matrix(0.725 0 0 0.725 339.582 105)">15000</text><path d="M363.652 327.853 365.638 327.853" stroke="#333333" stroke-width="0.77575" stroke-linecap="butt" stroke-linejoin="round" stroke-miterlimit="10" stroke-opacity="1" fill="none" fill-rule="nonzero"/><path d="M363.652 252.953 365.638 252.953" stroke="#333333" stroke-width="0.77575" stroke-linecap="butt" stroke-linejoin="round" stroke-miterlimit="10" stroke-opacity="1" fill="none" fill-rule="nonzero"/><path d="M363.652 178.053 365.638 178.053" stroke="#333333" stroke-width="0.77575" stroke-linecap="butt" stroke-linejoin="round" stroke-miterlimit="10" stroke-opacity="1" fill="none" fill-rule="nonzero"/><path d="M363.652 103.153 365.638 103.153" stroke="#333333" stroke-width="0.77575" stroke-linecap="butt" stroke-linejoin="round" stroke-miterlimit="10" stroke-opacity="1" fill="none" fill-rule="nonzero"/><text fill="#000000" fill-opacity="1" font-family="Arial,Arial_MSFontService,sans-serif" font-style="normal" font-variant="normal" font-weight="400" font-stretch="normal" font-size="12" text-anchor="start" direction="ltr" writing-mode="lr-tb" unicode-bidi="normal" text-decoration="none" transform="matrix(4.43934e-17 -0.725 0.725 4.43934e-17 320.681 253)">Transcript intersections</text></g><g><path d="M306 333 770 333 770 507 306 507Z" stroke="#FFFFFF" stroke-width="0.77575" stroke-linecap="round" stroke-linejoin="round" stroke-miterlimit="10" stroke-opacity="1" fill="#FFFFFF" fill-rule="nonzero" fill-opacity="1"/></g><g><path d="M365.638 331.855 764.78 331.855 764.78 480.646 365.638 480.646Z" fill="#FFFFFF" fill-rule="nonzero" fill-opacity="1"/><path d="M365.638 459.389 764.78 459.389 764.78 480.646 365.638 480.646Z" fill="#E0E0E0" fill-rule="nonzero" fill-opacity="0.25"/><path d="M365.638 416.875 764.78 416.875 764.78 438.132 365.638 438.132Z" fill="#E0E0E0" fill-rule="nonzero" fill-opacity="0.25"/><path d="M365.638 374.361 764.78 374.361 764.78 395.618 365.638 395.618Z" fill="#E0E0E0" fill-rule="nonzero" fill-opacity="0.25"/><path d="M365.638 331.855 764.78 331.855 764.78 353.112 365.638 353.112Z" fill="#E0E0E0" fill-rule="nonzero" fill-opacity="0.25"/><path d="M387.606 470.01C387.606 471.648 386.278 472.976 384.641 472.976 383.003 472.976 381.676 471.648 381.676 470.01 381.676 468.373 383.003 467.045 384.641 467.045 386.278 467.045 387.606 468.373 387.606 470.01Z" fill="#3B3B3B" fill-rule="nonzero" fill-opacity="1"/><path d="M387.606 448.761C387.606 450.398 386.278 451.726 384.641 451.726 383.003 451.726 381.676 450.398 381.676 448.761 381.676 447.123 383.003 445.795 384.641 445.795 386.278 445.795 387.606 447.123 387.606 448.761Z" fill="#3B3B3B" fill-rule="nonzero" fill-opacity="1"/><path d="M387.606 427.504C387.606 429.141 386.278 430.469 384.641 430.469 383.003 430.469 381.676 429.141 381.676 427.504 381.676 425.866 383.003 424.539 384.641 424.539 386.278 424.539 387.606 425.866 387.606 427.504Z" fill="#3B3B3B" fill-rule="nonzero" fill-opacity="1"/><path d="M387.606 406.247C387.606 407.884 386.278 409.212 384.641 409.212 383.003 409.212 381.676 407.884 381.676 406.247 381.676 404.609 383.003 403.282 384.641 403.282 386.278 403.282 387.606 404.609 387.606 406.247Z" fill="#3B3B3B" fill-rule="nonzero" fill-opacity="1"/><path d="M387.606 384.99C387.606 386.627 386.278 387.955 384.641 387.955 383.003 387.955 381.676 386.627 381.676 384.99 381.676 383.352 383.003 382.025 384.641 382.025 386.278 382.025 387.606 383.352 387.606 384.99Z" fill="#3B3B3B" fill-rule="nonzero" fill-opacity="1"/><path d="M387.606 363.733C387.606 365.37 386.278 366.698 384.641 366.698 383.003 366.698 381.676 365.37 381.676 363.733 381.676 362.095 383.003 360.768 384.641 360.768 386.278 360.768 387.606 362.095 387.606 363.733Z" fill="#3B3B3B" fill-rule="nonzero" fill-opacity="1"/><path d="M387.606 342.483C387.606 344.121 386.278 345.448 384.641 345.448 383.003 345.448 381.676 344.121 381.676 342.483 381.676 340.845 383.003 339.518 384.641 339.518 386.278 339.518 387.606 340.845 387.606 342.483Z" fill="#3B3B3B" fill-rule="nonzero" fill-opacity="1"/><path d="M406.616 470.01C406.616 471.648 405.288 472.976 403.65 472.976 402.013 472.976 400.685 471.648 400.685 470.01 400.685 468.373 402.013 467.045 403.65 467.045 405.288 467.045 406.616 468.373 406.616 470.01Z" fill="#3B3B3B" fill-rule="nonzero" fill-opacity="1"/><path d="M406.616 448.761C406.616 450.398 405.288 451.726 403.65 451.726 402.013 451.726 400.685 450.398 400.685 448.761 400.685 447.123 402.013 445.795 403.65 445.795 405.288 445.795 406.616 447.123 406.616 448.761Z" fill="#D4D4D4" fill-rule="nonzero" fill-opacity="0.5"/><path d="M406.616 427.504C406.616 429.141 405.288 430.469 403.65 430.469 402.013 430.469 400.685 429.141 400.685 427.504 400.685 425.866 402.013 424.539 403.65 424.539 405.288 424.539 406.616 425.866 406.616 427.504Z" fill="#D4D4D4" fill-rule="nonzero" fill-opacity="0.5"/><path d="M406.616 406.247C406.616 407.884 405.288 409.212 403.65 409.212 402.013 409.212 400.685 407.884 400.685 406.247 400.685 404.609 402.013 403.282 403.65 403.282 405.288 403.282 406.616 404.609 406.616 406.247Z" fill="#D4D4D4" fill-rule="nonzero" fill-opacity="0.5"/><path d="M406.616 384.99C406.616 386.627 405.288 387.955 403.65 387.955 402.013 387.955 400.685 386.627 400.685 384.99 400.685 383.352 402.013 382.025 403.65 382.025 405.288 382.025 406.616 383.352 406.616 384.99Z" fill="#D4D4D4" fill-rule="nonzero" fill-opacity="0.5"/><path d="M406.616 363.733C406.616 365.37 405.288 366.698 403.65 366.698 402.013 366.698 400.685 365.37 400.685 363.733 400.685 362.095 402.013 360.768 403.65 360.768 405.288 360.768 406.616 362.095 406.616 363.733Z" fill="#D4D4D4" fill-rule="nonzero" fill-opacity="0.5"/><path d="M406.616 342.483C406.616 344.121 405.288 345.448 403.65 345.448 402.013 345.448 400.685 344.121 400.685 342.483 400.685 340.845 402.013 339.518 403.65 339.518 405.288 339.518 406.616 340.845 406.616 342.483Z" fill="#D4D4D4" fill-rule="nonzero" fill-opacity="0.5"/><path d="M425.625 470.01C425.625 471.648 424.297 472.976 422.66 472.976 421.022 472.976 419.695 471.648 419.695 470.01 419.695 468.373 421.022 467.045 422.66 467.045 424.297 467.045 425.625 468.373 425.625 470.01Z" fill="#3B3B3B" fill-rule="nonzero" fill-opacity="1"/><path d="M425.625 448.761C425.625 450.398 424.297 451.726 422.66 451.726 421.022 451.726 419.695 450.398 419.695 448.761 419.695 447.123 421.022 445.795 422.66 445.795 424.297 445.795 425.625 447.123 425.625 448.761Z" fill="#3B3B3B" fill-rule="nonzero" fill-opacity="1"/><path d="M425.625 427.504C425.625 429.141 424.297 430.469 422.66 430.469 421.022 430.469 419.695 429.141 419.695 427.504 419.695 425.866 421.022 424.539 422.66 424.539 424.297 424.539 425.625 425.866 425.625 427.504Z" fill="#3B3B3B" fill-rule="nonzero" fill-opacity="1"/><path d="M425.625 406.247C425.625 407.884 424.297 409.212 422.66 409.212 421.022 409.212 419.695 407.884 419.695 406.247 419.695 404.609 421.022 403.282 422.66 403.282 424.297 403.282 425.625 404.609 425.625 406.247Z" fill="#3B3B3B" fill-rule="nonzero" fill-opacity="1"/><path d="M425.625 384.99C425.625 386.627 424.297 387.955 422.66 387.955 421.022 387.955 419.695 386.627 419.695 384.99 419.695 383.352 421.022 382.025 422.66 382.025 424.297 382.025 425.625 383.352 425.625 384.99Z" fill="#3B3B3B" fill-rule="nonzero" fill-opacity="1"/><path d="M425.625 363.733C425.625 365.37 424.297 366.698 422.66 366.698 421.022 366.698 419.695 365.37 419.695 363.733 419.695 362.095 421.022 360.768 422.66 360.768 424.297 360.768 425.625 362.095 425.625 363.733Z" fill="#D4D4D4" fill-rule="nonzero" fill-opacity="0.5"/><path d="M425.625 342.483C425.625 344.121 424.297 345.448 422.66 345.448 421.022 345.448 419.695 344.121 419.695 342.483 419.695 340.845 421.022 339.518 422.66 339.518 424.297 339.518 425.625 340.845 425.625 342.483Z" fill="#3B3B3B" fill-rule="nonzero" fill-opacity="1"/><path d="M444.627 470.01C444.627 471.648 443.3 472.976 441.662 472.976 440.024 472.976 438.697 471.648 438.697 470.01 438.697 468.373 440.024 467.045 441.662 467.045 443.3 467.045 444.627 468.373 444.627 470.01Z" fill="#3B3B3B" fill-rule="nonzero" fill-opacity="1"/><path d="M444.627 448.761C444.627 450.398 443.3 451.726 441.662 451.726 440.024 451.726 438.697 450.398 438.697 448.761 438.697 447.123 440.024 445.795 441.662 445.795 443.3 445.795 444.627 447.123 444.627 448.761Z" fill="#3B3B3B" fill-rule="nonzero" fill-opacity="1"/><path d="M444.627 427.504C444.627 429.141 443.3 430.469 441.662 430.469 440.024 430.469 438.697 429.141 438.697 427.504 438.697 425.866 440.024 424.539 441.662 424.539 443.3 424.539 444.627 425.866 444.627 427.504Z" fill="#D4D4D4" fill-rule="nonzero" fill-opacity="0.5"/><path d="M444.627 406.247C444.627 407.884 443.3 409.212 441.662 409.212 440.024 409.212 438.697 407.884 438.697 406.247 438.697 404.609 440.024 403.282 441.662 403.282 443.3 403.282 444.627 404.609 444.627 406.247Z" fill="#D4D4D4" fill-rule="nonzero" fill-opacity="0.5"/><path d="M444.627 384.99C444.627 386.627 443.3 387.955 441.662 387.955 440.024 387.955 438.697 386.627 438.697 384.99 438.697 383.352 440.024 382.025 441.662 382.025 443.3 382.025 444.627 383.352 444.627 384.99Z" fill="#3B3B3B" fill-rule="nonzero" fill-opacity="1"/><path d="M444.627 363.733C444.627 365.37 443.3 366.698 441.662 366.698 440.024 366.698 438.697 365.37 438.697 363.733 438.697 362.095 440.024 360.768 441.662 360.768 443.3 360.768 444.627 362.095 444.627 363.733Z" fill="#D4D4D4" fill-rule="nonzero" fill-opacity="0.5"/><path d="M444.627 342.483C444.627 344.121 443.3 345.448 441.662 345.448 440.024 345.448 438.697 344.121 438.697 342.483 438.697 340.845 440.024 339.518 441.662 339.518 443.3 339.518 444.627 340.845 444.627 342.483Z" fill="#D4D4D4" fill-rule="nonzero" fill-opacity="0.5"/><path d="M463.637 470.01C463.637 471.648 462.309 472.976 460.672 472.976 459.034 472.976 457.706 471.648 457.706 470.01 457.706 468.373 459.034 467.045 460.672 467.045 462.309 467.045 463.637 468.373 463.637 470.01Z" fill="#3B3B3B" fill-rule="nonzero" fill-opacity="1"/><path d="M463.637 448.761C463.637 450.398 462.309 451.726 460.672 451.726 459.034 451.726 457.706 450.398 457.706 448.761 457.706 447.123 459.034 445.795 460.672 445.795 462.309 445.795 463.637 447.123 463.637 448.761Z" fill="#3B3B3B" fill-rule="nonzero" fill-opacity="1"/><path d="M463.637 427.504C463.637 429.141 462.309 430.469 460.672 430.469 459.034 430.469 457.706 429.141 457.706 427.504 457.706 425.866 459.034 424.539 460.672 424.539 462.309 424.539 463.637 425.866 463.637 427.504Z" fill="#3B3B3B" fill-rule="nonzero" fill-opacity="1"/><path d="M463.637 406.247C463.637 407.884 462.309 409.212 460.672 409.212 459.034 409.212 457.706 407.884 457.706 406.247 457.706 404.609 459.034 403.282 460.672 403.282 462.309 403.282 463.637 404.609 463.637 406.247Z" fill="#3B3B3B" fill-rule="nonzero" fill-opacity="1"/><path d="M463.637 384.99C463.637 386.627 462.309 387.955 460.672 387.955 459.034 387.955 457.706 386.627 457.706 384.99 457.706 383.352 459.034 382.025 460.672 382.025 462.309 382.025 463.637 383.352 463.637 384.99Z" fill="#3B3B3B" fill-rule="nonzero" fill-opacity="1"/><path d="M463.637 363.733C463.637 365.37 462.309 366.698 460.672 366.698 459.034 366.698 457.706 365.37 457.706 363.733 457.706 362.095 459.034 360.768 460.672 360.768 462.309 360.768 463.637 362.095 463.637 363.733Z" fill="#D4D4D4" fill-rule="nonzero" fill-opacity="0.5"/><path d="M463.637 342.483C463.637 344.121 462.309 345.448 460.672 345.448 459.034 345.448 457.706 344.121 457.706 342.483 457.706 340.845 459.034 339.518 460.672 339.518 462.309 339.518 463.637 340.845 463.637 342.483Z" fill="#D4D4D4" fill-rule="nonzero" fill-opacity="0.5"/><path d="M482.639 470.01C482.639 471.648 481.311 472.976 479.674 472.976 478.036 472.976 476.709 471.648 476.709 470.01 476.709 468.373 478.036 467.045 479.674 467.045 481.311 467.045 482.639 468.373 482.639 470.01Z" fill="#3B3B3B" fill-rule="nonzero" fill-opacity="1"/><path d="M482.639 448.761C482.639 450.398 481.311 451.726 479.674 451.726 478.036 451.726 476.709 450.398 476.709 448.761 476.709 447.123 478.036 445.795 479.674 445.795 481.311 445.795 482.639 447.123 482.639 448.761Z" fill="#3B3B3B" fill-rule="nonzero" fill-opacity="1"/><path d="M482.639 427.504C482.639 429.141 481.311 430.469 479.674 430.469 478.036 430.469 476.709 429.141 476.709 427.504 476.709 425.866 478.036 424.539 479.674 424.539 481.311 424.539 482.639 425.866 482.639 427.504Z" fill="#D4D4D4" fill-rule="nonzero" fill-opacity="0.5"/><path d="M482.639 406.247C482.639 407.884 481.311 409.212 479.674 409.212 478.036 409.212 476.709 407.884 476.709 406.247 476.709 404.609 478.036 403.282 479.674 403.282 481.311 403.282 482.639 404.609 482.639 406.247Z" fill="#3B3B3B" fill-rule="nonzero" fill-opacity="1"/><path d="M482.639 384.99C482.639 386.627 481.311 387.955 479.674 387.955 478.036 387.955 476.709 386.627 476.709 384.99 476.709 383.352 478.036 382.025 479.674 382.025 481.311 382.025 482.639 383.352 482.639 384.99Z" fill="#D4D4D4" fill-rule="nonzero" fill-opacity="0.5"/><path d="M482.639 363.733C482.639 365.37 481.311 366.698 479.674 366.698 478.036 366.698 476.709 365.37 476.709 363.733 476.709 362.095 478.036 360.768 479.674 360.768 481.311 360.768 482.639 362.095 482.639 363.733Z" fill="#D4D4D4" fill-rule="nonzero" fill-opacity="0.5"/><path d="M482.639 342.483C482.639 344.121 481.311 345.448 479.674 345.448 478.036 345.448 476.709 344.121 476.709 342.483 476.709 340.845 478.036 339.518 479.674 339.518 481.311 339.518 482.639 340.845 482.639 342.483Z" fill="#D4D4D4" fill-rule="nonzero" fill-opacity="0.5"/><path d="M501.648 470.01C501.648 471.648 500.321 472.976 498.683 472.976 497.046 472.976 495.718 471.648 495.718 470.01 495.718 468.373 497.046 467.045 498.683 467.045 500.321 467.045 501.648 468.373 501.648 470.01Z" fill="#D4D4D4" fill-rule="nonzero" fill-opacity="0.5"/><path d="M501.648 448.761C501.648 450.398 500.321 451.726 498.683 451.726 497.046 451.726 495.718 450.398 495.718 448.761 495.718 447.123 497.046 445.795 498.683 445.795 500.321 445.795 501.648 447.123 501.648 448.761Z" fill="#3B3B3B" fill-rule="nonzero" fill-opacity="1"/><path d="M501.648 427.504C501.648 429.141 500.321 430.469 498.683 430.469 497.046 430.469 495.718 429.141 495.718 427.504 495.718 425.866 497.046 424.539 498.683 424.539 500.321 424.539 501.648 425.866 501.648 427.504Z" fill="#D4D4D4" fill-rule="nonzero" fill-opacity="0.5"/><path d="M501.648 406.247C501.648 407.884 500.321 409.212 498.683 409.212 497.046 409.212 495.718 407.884 495.718 406.247 495.718 404.609 497.046 403.282 498.683 403.282 500.321 403.282 501.648 404.609 501.648 406.247Z" fill="#D4D4D4" fill-rule="nonzero" fill-opacity="0.5"/><path d="M501.648 384.99C501.648 386.627 500.321 387.955 498.683 387.955 497.046 387.955 495.718 386.627 495.718 384.99 495.718 383.352 497.046 382.025 498.683 382.025 500.321 382.025 501.648 383.352 501.648 384.99Z" fill="#D4D4D4" fill-rule="nonzero" fill-opacity="0.5"/><path d="M501.648 363.733C501.648 365.37 500.321 366.698 498.683 366.698 497.046 366.698 495.718 365.37 495.718 363.733 495.718 362.095 497.046 360.768 498.683 360.768 500.321 360.768 501.648 362.095 501.648 363.733Z" fill="#D4D4D4" fill-rule="nonzero" fill-opacity="0.5"/><path d="M501.648 342.483C501.648 344.121 500.321 345.448 498.683 345.448 497.046 345.448 495.718 344.121 495.718 342.483 495.718 340.845 497.046 339.518 498.683 339.518 500.321 339.518 501.648 340.845 501.648 342.483Z" fill="#3B3B3B" fill-rule="nonzero" fill-opacity="1"/><path d="M520.658 470.01C520.658 471.648 519.33 472.976 517.693 472.976 516.055 472.976 514.727 471.648 514.727 470.01 514.727 468.373 516.055 467.045 517.693 467.045 519.33 467.045 520.658 468.373 520.658 470.01Z" fill="#3B3B3B" fill-rule="nonzero" fill-opacity="1"/><path d="M520.658 448.761C520.658 450.398 519.33 451.726 517.693 451.726 516.055 451.726 514.727 450.398 514.727 448.761 514.727 447.123 516.055 445.795 517.693 445.795 519.33 445.795 520.658 447.123 520.658 448.761Z" fill="#3B3B3B" fill-rule="nonzero" fill-opacity="1"/><path d="M520.658 427.504C520.658 429.141 519.33 430.469 517.693 430.469 516.055 430.469 514.727 429.141 514.727 427.504 514.727 425.866 516.055 424.539 517.693 424.539 519.33 424.539 520.658 425.866 520.658 427.504Z" fill="#3B3B3B" fill-rule="nonzero" fill-opacity="1"/><path d="M520.658 406.247C520.658 407.884 519.33 409.212 517.693 409.212 516.055 409.212 514.727 407.884 514.727 406.247 514.727 404.609 516.055 403.282 517.693 403.282 519.33 403.282 520.658 404.609 520.658 406.247Z" fill="#D4D4D4" fill-rule="nonzero" fill-opacity="0.5"/><path d="M520.658 384.99C520.658 386.627 519.33 387.955 517.693 387.955 516.055 387.955 514.727 386.627 514.727 384.99 514.727 383.352 516.055 382.025 517.693 382.025 519.33 382.025 520.658 383.352 520.658 384.99Z" fill="#D4D4D4" fill-rule="nonzero" fill-opacity="0.5"/><path d="M520.658 363.733C520.658 365.37 519.33 366.698 517.693 366.698 516.055 366.698 514.727 365.37 514.727 363.733 514.727 362.095 516.055 360.768 517.693 360.768 519.33 360.768 520.658 362.095 520.658 363.733Z" fill="#D4D4D4" fill-rule="nonzero" fill-opacity="0.5"/><path d="M520.658 342.483C520.658 344.121 519.33 345.448 517.693 345.448 516.055 345.448 514.727 344.121 514.727 342.483 514.727 340.845 516.055 339.518 517.693 339.518 519.33 339.518 520.658 340.845 520.658 342.483Z" fill="#D4D4D4" fill-rule="nonzero" fill-opacity="0.5"/><path d="M539.66 470.01C539.66 471.648 538.333 472.976 536.695 472.976 535.057 472.976 533.73 471.648 533.73 470.01 533.73 468.373 535.057 467.045 536.695 467.045 538.333 467.045 539.66 468.373 539.66 470.01Z" fill="#D4D4D4" fill-rule="nonzero" fill-opacity="0.5"/><path d="M539.66 448.761C539.66 450.398 538.333 451.726 536.695 451.726 535.057 451.726 533.73 450.398 533.73 448.761 533.73 447.123 535.057 445.795 536.695 445.795 538.333 445.795 539.66 447.123 539.66 448.761Z" fill="#3B3B3B" fill-rule="nonzero" fill-opacity="1"/><path d="M539.66 427.504C539.66 429.141 538.333 430.469 536.695 430.469 535.057 430.469 533.73 429.141 533.73 427.504 533.73 425.866 535.057 424.539 536.695 424.539 538.333 424.539 539.66 425.866 539.66 427.504Z" fill="#D4D4D4" fill-rule="nonzero" fill-opacity="0.5"/><path d="M539.66 406.247C539.66 407.884 538.333 409.212 536.695 409.212 535.057 409.212 533.73 407.884 533.73 406.247 533.73 404.609 535.057 403.282 536.695 403.282 538.333 403.282 539.66 404.609 539.66 406.247Z" fill="#3B3B3B" fill-rule="nonzero" fill-opacity="1"/><path d="M539.66 384.99C539.66 386.627 538.333 387.955 536.695 387.955 535.057 387.955 533.73 386.627 533.73 384.99 533.73 383.352 535.057 382.025 536.695 382.025 538.333 382.025 539.66 383.352 539.66 384.99Z" fill="#D4D4D4" fill-rule="nonzero" fill-opacity="0.5"/><path d="M539.66 363.733C539.66 365.37 538.333 366.698 536.695 366.698 535.057 366.698 533.73 365.37 533.73 363.733 533.73 362.095 535.057 360.768 536.695 360.768 538.333 360.768 539.66 362.095 539.66 363.733Z" fill="#D4D4D4" fill-rule="nonzero" fill-opacity="0.5"/><path d="M539.66 342.483C539.66 344.121 538.333 345.448 536.695 345.448 535.057 345.448 533.73 344.121 533.73 342.483 533.73 340.845 535.057 339.518 536.695 339.518 538.333 339.518 539.66 340.845 539.66 342.483Z" fill="#D4D4D4" fill-rule="nonzero" fill-opacity="0.5"/><path d="M558.67 470.01C558.67 471.648 557.342 472.976 555.705 472.976 554.067 472.976 552.739 471.648 552.739 470.01 552.739 468.373 554.067 467.045 555.705 467.045 557.342 467.045 558.67 468.373 558.67 470.01Z" fill="#D4D4D4" fill-rule="nonzero" fill-opacity="0.5"/><path d="M558.67 448.761C558.67 450.398 557.342 451.726 555.705 451.726 554.067 451.726 552.739 450.398 552.739 448.761 552.739 447.123 554.067 445.795 555.705 445.795 557.342 445.795 558.67 447.123 558.67 448.761Z" fill="#3B3B3B" fill-rule="nonzero" fill-opacity="1"/><path d="M558.67 427.504C558.67 429.141 557.342 430.469 555.705 430.469 554.067 430.469 552.739 429.141 552.739 427.504 552.739 425.866 554.067 424.539 555.705 424.539 557.342 424.539 558.67 425.866 558.67 427.504Z" fill="#3B3B3B" fill-rule="nonzero" fill-opacity="1"/><path d="M558.67 406.247C558.67 407.884 557.342 409.212 555.705 409.212 554.067 409.212 552.739 407.884 552.739 406.247 552.739 404.609 554.067 403.282 555.705 403.282 557.342 403.282 558.67 404.609 558.67 406.247Z" fill="#D4D4D4" fill-rule="nonzero" fill-opacity="0.5"/><path d="M558.67 384.99C558.67 386.627 557.342 387.955 555.705 387.955 554.067 387.955 552.739 386.627 552.739 384.99 552.739 383.352 554.067 382.025 555.705 382.025 557.342 382.025 558.67 383.352 558.67 384.99Z" fill="#D4D4D4" fill-rule="nonzero" fill-opacity="0.5"/><path d="M558.67 363.733C558.67 365.37 557.342 366.698 555.705 366.698 554.067 366.698 552.739 365.37 552.739 363.733 552.739 362.095 554.067 360.768 555.705 360.768 557.342 360.768 558.67 362.095 558.67 363.733Z" fill="#D4D4D4" fill-rule="nonzero" fill-opacity="0.5"/><path d="M558.67 342.483C558.67 344.121 557.342 345.448 555.705 345.448 554.067 345.448 552.739 344.121 552.739 342.483 552.739 340.845 554.067 339.518 555.705 339.518 557.342 339.518 558.67 340.845 558.67 342.483Z" fill="#D4D4D4" fill-rule="nonzero" fill-opacity="0.5"/><path d="M577.679 470.01C577.679 471.648 576.352 472.976 574.714 472.976 573.076 472.976 571.749 471.648 571.749 470.01 571.749 468.373 573.076 467.045 574.714 467.045 576.352 467.045 577.679 468.373 577.679 470.01Z" fill="#D4D4D4" fill-rule="nonzero" fill-opacity="0.5"/><path d="M577.679 448.761C577.679 450.398 576.352 451.726 574.714 451.726 573.076 451.726 571.749 450.398 571.749 448.761 571.749 447.123 573.076 445.795 574.714 445.795 576.352 445.795 577.679 447.123 577.679 448.761Z" fill="#3B3B3B" fill-rule="nonzero" fill-opacity="1"/><path d="M577.679 427.504C577.679 429.141 576.352 430.469 574.714 430.469 573.076 430.469 571.749 429.141 571.749 427.504 571.749 425.866 573.076 424.539 574.714 424.539 576.352 424.539 577.679 425.866 577.679 427.504Z" fill="#D4D4D4" fill-rule="nonzero" fill-opacity="0.5"/><path d="M577.679 406.247C577.679 407.884 576.352 409.212 574.714 409.212 573.076 409.212 571.749 407.884 571.749 406.247 571.749 404.609 573.076 403.282 574.714 403.282 576.352 403.282 577.679 404.609 577.679 406.247Z" fill="#D4D4D4" fill-rule="nonzero" fill-opacity="0.5"/><path d="M577.679 384.99C577.679 386.627 576.352 387.955 574.714 387.955 573.076 387.955 571.749 386.627 571.749 384.99 571.749 383.352 573.076 382.025 574.714 382.025 576.352 382.025 577.679 383.352 577.679 384.99Z" fill="#3B3B3B" fill-rule="nonzero" fill-opacity="1"/><path d="M577.679 363.733C577.679 365.37 576.352 366.698 574.714 366.698 573.076 366.698 571.749 365.37 571.749 363.733 571.749 362.095 573.076 360.768 574.714 360.768 576.352 360.768 577.679 362.095 577.679 363.733Z" fill="#D4D4D4" fill-rule="nonzero" fill-opacity="0.5"/><path d="M577.679 342.483C577.679 344.121 576.352 345.448 574.714 345.448 573.076 345.448 571.749 344.121 571.749 342.483 571.749 340.845 573.076 339.518 574.714 339.518 576.352 339.518 577.679 340.845 577.679 342.483Z" fill="#D4D4D4" fill-rule="nonzero" fill-opacity="0.5"/><path d="M596.682 470.01C596.682 471.648 595.354 472.976 593.716 472.976 592.079 472.976 590.751 471.648 590.751 470.01 590.751 468.373 592.079 467.045 593.716 467.045 595.354 467.045 596.682 468.373 596.682 470.01Z" fill="#3B3B3B" fill-rule="nonzero" fill-opacity="1"/><path d="M596.682 448.761C596.682 450.398 595.354 451.726 593.716 451.726 592.079 451.726 590.751 450.398 590.751 448.761 590.751 447.123 592.079 445.795 593.716 445.795 595.354 445.795 596.682 447.123 596.682 448.761Z" fill="#3B3B3B" fill-rule="nonzero" fill-opacity="1"/><path d="M596.682 427.504C596.682 429.141 595.354 430.469 593.716 430.469 592.079 430.469 590.751 429.141 590.751 427.504 590.751 425.866 592.079 424.539 593.716 424.539 595.354 424.539 596.682 425.866 596.682 427.504Z" fill="#D4D4D4" fill-rule="nonzero" fill-opacity="0.5"/><path d="M596.682 406.247C596.682 407.884 595.354 409.212 593.716 409.212 592.079 409.212 590.751 407.884 590.751 406.247 590.751 404.609 592.079 403.282 593.716 403.282 595.354 403.282 596.682 404.609 596.682 406.247Z" fill="#3B3B3B" fill-rule="nonzero" fill-opacity="1"/><path d="M596.682 384.99C596.682 386.627 595.354 387.955 593.716 387.955 592.079 387.955 590.751 386.627 590.751 384.99 590.751 383.352 592.079 382.025 593.716 382.025 595.354 382.025 596.682 383.352 596.682 384.99Z" fill="#3B3B3B" fill-rule="nonzero" fill-opacity="1"/><path d="M596.682 363.733C596.682 365.37 595.354 366.698 593.716 366.698 592.079 366.698 590.751 365.37 590.751 363.733 590.751 362.095 592.079 360.768 593.716 360.768 595.354 360.768 596.682 362.095 596.682 363.733Z" fill="#D4D4D4" fill-rule="nonzero" fill-opacity="0.5"/><path d="M596.682 342.483C596.682 344.121 595.354 345.448 593.716 345.448 592.079 345.448 590.751 344.121 590.751 342.483 590.751 340.845 592.079 339.518 593.716 339.518 595.354 339.518 596.682 340.845 596.682 342.483Z" fill="#D4D4D4" fill-rule="nonzero" fill-opacity="0.5"/><path d="M615.691 470.01C615.691 471.648 614.363 472.976 612.726 472.976 611.088 472.976 609.76 471.648 609.76 470.01 609.76 468.373 611.088 467.045 612.726 467.045 614.363 467.045 615.691 468.373 615.691 470.01Z" fill="#3B3B3B" fill-rule="nonzero" fill-opacity="1"/><path d="M615.691 448.761C615.691 450.398 614.363 451.726 612.726 451.726 611.088 451.726 609.76 450.398 609.76 448.761 609.76 447.123 611.088 445.795 612.726 445.795 614.363 445.795 615.691 447.123 615.691 448.761Z" fill="#3B3B3B" fill-rule="nonzero" fill-opacity="1"/><path d="M615.691 427.504C615.691 429.141 614.363 430.469 612.726 430.469 611.088 430.469 609.76 429.141 609.76 427.504 609.76 425.866 611.088 424.539 612.726 424.539 614.363 424.539 615.691 425.866 615.691 427.504Z" fill="#D4D4D4" fill-rule="nonzero" fill-opacity="0.5"/><path d="M615.691 406.247C615.691 407.884 614.363 409.212 612.726 409.212 611.088 409.212 609.76 407.884 609.76 406.247 609.76 404.609 611.088 403.282 612.726 403.282 614.363 403.282 615.691 404.609 615.691 406.247Z" fill="#D4D4D4" fill-rule="nonzero" fill-opacity="0.5"/><path d="M615.691 384.99C615.691 386.627 614.363 387.955 612.726 387.955 611.088 387.955 609.76 386.627 609.76 384.99 609.76 383.352 611.088 382.025 612.726 382.025 614.363 382.025 615.691 383.352 615.691 384.99Z" fill="#D4D4D4" fill-rule="nonzero" fill-opacity="0.5"/><path d="M615.691 363.733C615.691 365.37 614.363 366.698 612.726 366.698 611.088 366.698 609.76 365.37 609.76 363.733 609.76 362.095 611.088 360.768 612.726 360.768 614.363 360.768 615.691 362.095 615.691 363.733Z" fill="#D4D4D4" fill-rule="nonzero" fill-opacity="0.5"/><path d="M615.691 342.483C615.691 344.121 614.363 345.448 612.726 345.448 611.088 345.448 609.76 344.121 609.76 342.483 609.76 340.845 611.088 339.518 612.726 339.518 614.363 339.518 615.691 340.845 615.691 342.483Z" fill="#3B3B3B" fill-rule="nonzero" fill-opacity="1"/><path d="M634.701 470.01C634.701 471.648 633.373 472.976 631.735 472.976 630.098 472.976 628.77 471.648 628.77 470.01 628.77 468.373 630.098 467.045 631.735 467.045 633.373 467.045 634.701 468.373 634.701 470.01Z" fill="#3B3B3B" fill-rule="nonzero" fill-opacity="1"/><path d="M634.701 448.761C634.701 450.398 633.373 451.726 631.735 451.726 630.098 451.726 628.77 450.398 628.77 448.761 628.77 447.123 630.098 445.795 631.735 445.795 633.373 445.795 634.701 447.123 634.701 448.761Z" fill="#3B3B3B" fill-rule="nonzero" fill-opacity="1"/><path d="M634.701 427.504C634.701 429.141 633.373 430.469 631.735 430.469 630.098 430.469 628.77 429.141 628.77 427.504 628.77 425.866 630.098 424.539 631.735 424.539 633.373 424.539 634.701 425.866 634.701 427.504Z" fill="#3B3B3B" fill-rule="nonzero" fill-opacity="1"/><path d="M634.701 406.247C634.701 407.884 633.373 409.212 631.735 409.212 630.098 409.212 628.77 407.884 628.77 406.247 628.77 404.609 630.098 403.282 631.735 403.282 633.373 403.282 634.701 404.609 634.701 406.247Z" fill="#D4D4D4" fill-rule="nonzero" fill-opacity="0.5"/><path d="M634.701 384.99C634.701 386.627 633.373 387.955 631.735 387.955 630.098 387.955 628.77 386.627 628.77 384.99 628.77 383.352 630.098 382.025 631.735 382.025 633.373 382.025 634.701 383.352 634.701 384.99Z" fill="#3B3B3B" fill-rule="nonzero" fill-opacity="1"/><path d="M634.701 363.733C634.701 365.37 633.373 366.698 631.735 366.698 630.098 366.698 628.77 365.37 628.77 363.733 628.77 362.095 630.098 360.768 631.735 360.768 633.373 360.768 634.701 362.095 634.701 363.733Z" fill="#D4D4D4" fill-rule="nonzero" fill-opacity="0.5"/><path d="M634.701 342.483C634.701 344.121 633.373 345.448 631.735 345.448 630.098 345.448 628.77 344.121 628.77 342.483 628.77 340.845 630.098 339.518 631.735 339.518 633.373 339.518 634.701 340.845 634.701 342.483Z" fill="#D4D4D4" fill-rule="nonzero" fill-opacity="0.5"/><path d="M653.703 470.01C653.703 471.648 652.375 472.976 650.737 472.976 649.1 472.976 647.772 471.648 647.772 470.01 647.772 468.373 649.1 467.045 650.737 467.045 652.375 467.045 653.703 468.373 653.703 470.01Z" fill="#3B3B3B" fill-rule="nonzero" fill-opacity="1"/><path d="M653.703 448.761C653.703 450.398 652.375 451.726 650.737 451.726 649.1 451.726 647.772 450.398 647.772 448.761 647.772 447.123 649.1 445.795 650.737 445.795 652.375 445.795 653.703 447.123 653.703 448.761Z" fill="#3B3B3B" fill-rule="nonzero" fill-opacity="1"/><path d="M653.703 427.504C653.703 429.141 652.375 430.469 650.737 430.469 649.1 430.469 647.772 429.141 647.772 427.504 647.772 425.866 649.1 424.539 650.737 424.539 652.375 424.539 653.703 425.866 653.703 427.504Z" fill="#3B3B3B" fill-rule="nonzero" fill-opacity="1"/><path d="M653.703 406.247C653.703 407.884 652.375 409.212 650.737 409.212 649.1 409.212 647.772 407.884 647.772 406.247 647.772 404.609 649.1 403.282 650.737 403.282 652.375 403.282 653.703 404.609 653.703 406.247Z" fill="#3B3B3B" fill-rule="nonzero" fill-opacity="1"/><path d="M653.703 384.99C653.703 386.627 652.375 387.955 650.737 387.955 649.1 387.955 647.772 386.627 647.772 384.99 647.772 383.352 649.1 382.025 650.737 382.025 652.375 382.025 653.703 383.352 653.703 384.99Z" fill="#D4D4D4" fill-rule="nonzero" fill-opacity="0.5"/><path d="M653.703 363.733C653.703 365.37 652.375 366.698 650.737 366.698 649.1 366.698 647.772 365.37 647.772 363.733 647.772 362.095 649.1 360.768 650.737 360.768 652.375 360.768 653.703 362.095 653.703 363.733Z" fill="#D4D4D4" fill-rule="nonzero" fill-opacity="0.5"/><path d="M653.703 342.483C653.703 344.121 652.375 345.448 650.737 345.448 649.1 345.448 647.772 344.121 647.772 342.483 647.772 340.845 649.1 339.518 650.737 339.518 652.375 339.518 653.703 340.845 653.703 342.483Z" fill="#D4D4D4" fill-rule="nonzero" fill-opacity="0.5"/><path d="M672.712 470.01C672.712 471.648 671.385 472.976 669.747 472.976 668.109 472.976 666.782 471.648 666.782 470.01 666.782 468.373 668.109 467.045 669.747 467.045 671.385 467.045 672.712 468.373 672.712 470.01Z" fill="#D4D4D4" fill-rule="nonzero" fill-opacity="0.5"/><path d="M672.712 448.761C672.712 450.398 671.385 451.726 669.747 451.726 668.109 451.726 666.782 450.398 666.782 448.761 666.782 447.123 668.109 445.795 669.747 445.795 671.385 445.795 672.712 447.123 672.712 448.761Z" fill="#3B3B3B" fill-rule="nonzero" fill-opacity="1"/><path d="M672.712 427.504C672.712 429.141 671.385 430.469 669.747 430.469 668.109 430.469 666.782 429.141 666.782 427.504 666.782 425.866 668.109 424.539 669.747 424.539 671.385 424.539 672.712 425.866 672.712 427.504Z" fill="#D4D4D4" fill-rule="nonzero" fill-opacity="0.5"/><path d="M672.712 406.247C672.712 407.884 671.385 409.212 669.747 409.212 668.109 409.212 666.782 407.884 666.782 406.247 666.782 404.609 668.109 403.282 669.747 403.282 671.385 403.282 672.712 404.609 672.712 406.247Z" fill="#D4D4D4" fill-rule="nonzero" fill-opacity="0.5"/><path d="M672.712 384.99C672.712 386.627 671.385 387.955 669.747 387.955 668.109 387.955 666.782 386.627 666.782 384.99 666.782 383.352 668.109 382.025 669.747 382.025 671.385 382.025 672.712 383.352 672.712 384.99Z" fill="#D4D4D4" fill-rule="nonzero" fill-opacity="0.5"/><path d="M672.712 363.733C672.712 365.37 671.385 366.698 669.747 366.698 668.109 366.698 666.782 365.37 666.782 363.733 666.782 362.095 668.109 360.768 669.747 360.768 671.385 360.768 672.712 362.095 672.712 363.733Z" fill="#3B3B3B" fill-rule="nonzero" fill-opacity="1"/><path d="M672.712 342.483C672.712 344.121 671.385 345.448 669.747 345.448 668.109 345.448 666.782 344.121 666.782 342.483 666.782 340.845 668.109 339.518 669.747 339.518 671.385 339.518 672.712 340.845 672.712 342.483Z" fill="#D4D4D4" fill-rule="nonzero" fill-opacity="0.5"/><path d="M691.715 470.01C691.715 471.648 690.387 472.976 688.749 472.976 687.112 472.976 685.784 471.648 685.784 470.01 685.784 468.373 687.112 467.045 688.749 467.045 690.387 467.045 691.715 468.373 691.715 470.01Z" fill="#3B3B3B" fill-rule="nonzero" fill-opacity="1"/><path d="M691.715 448.761C691.715 450.398 690.387 451.726 688.749 451.726 687.112 451.726 685.784 450.398 685.784 448.761 685.784 447.123 687.112 445.795 688.749 445.795 690.387 445.795 691.715 447.123 691.715 448.761Z" fill="#3B3B3B" fill-rule="nonzero" fill-opacity="1"/><path d="M691.715 427.504C691.715 429.141 690.387 430.469 688.749 430.469 687.112 430.469 685.784 429.141 685.784 427.504 685.784 425.866 687.112 424.539 688.749 424.539 690.387 424.539 691.715 425.866 691.715 427.504Z" fill="#D4D4D4" fill-rule="nonzero" fill-opacity="0.5"/><path d="M691.715 406.247C691.715 407.884 690.387 409.212 688.749 409.212 687.112 409.212 685.784 407.884 685.784 406.247 685.784 404.609 687.112 403.282 688.749 403.282 690.387 403.282 691.715 404.609 691.715 406.247Z" fill="#3B3B3B" fill-rule="nonzero" fill-opacity="1"/><path d="M691.715 384.99C691.715 386.627 690.387 387.955 688.749 387.955 687.112 387.955 685.784 386.627 685.784 384.99 685.784 383.352 687.112 382.025 688.749 382.025 690.387 382.025 691.715 383.352 691.715 384.99Z" fill="#3B3B3B" fill-rule="nonzero" fill-opacity="1"/><path d="M691.715 363.733C691.715 365.37 690.387 366.698 688.749 366.698 687.112 366.698 685.784 365.37 685.784 363.733 685.784 362.095 687.112 360.768 688.749 360.768 690.387 360.768 691.715 362.095 691.715 363.733Z" fill="#D4D4D4" fill-rule="nonzero" fill-opacity="0.5"/><path d="M691.715 342.483C691.715 344.121 690.387 345.448 688.749 345.448 687.112 345.448 685.784 344.121 685.784 342.483 685.784 340.845 687.112 339.518 688.749 339.518 690.387 339.518 691.715 340.845 691.715 342.483Z" fill="#3B3B3B" fill-rule="nonzero" fill-opacity="1"/><path d="M710.724 470.01C710.724 471.648 709.396 472.976 707.759 472.976 706.121 472.976 704.793 471.648 704.793 470.01 704.793 468.373 706.121 467.045 707.759 467.045 709.396 467.045 710.724 468.373 710.724 470.01Z" fill="#3B3B3B" fill-rule="nonzero" fill-opacity="1"/><path d="M710.724 448.761C710.724 450.398 709.396 451.726 707.759 451.726 706.121 451.726 704.793 450.398 704.793 448.761 704.793 447.123 706.121 445.795 707.759 445.795 709.396 445.795 710.724 447.123 710.724 448.761Z" fill="#3B3B3B" fill-rule="nonzero" fill-opacity="1"/><path d="M710.724 427.504C710.724 429.141 709.396 430.469 707.759 430.469 706.121 430.469 704.793 429.141 704.793 427.504 704.793 425.866 706.121 424.539 707.759 424.539 709.396 424.539 710.724 425.866 710.724 427.504Z" fill="#D4D4D4" fill-rule="nonzero" fill-opacity="0.5"/><path d="M710.724 406.247C710.724 407.884 709.396 409.212 707.759 409.212 706.121 409.212 704.793 407.884 704.793 406.247 704.793 404.609 706.121 403.282 707.759 403.282 709.396 403.282 710.724 404.609 710.724 406.247Z" fill="#3B3B3B" fill-rule="nonzero" fill-opacity="1"/><path d="M710.724 384.99C710.724 386.627 709.396 387.955 707.759 387.955 706.121 387.955 704.793 386.627 704.793 384.99 704.793 383.352 706.121 382.025 707.759 382.025 709.396 382.025 710.724 383.352 710.724 384.99Z" fill="#3B3B3B" fill-rule="nonzero" fill-opacity="1"/><path d="M710.724 363.733C710.724 365.37 709.396 366.698 707.759 366.698 706.121 366.698 704.793 365.37 704.793 363.733 704.793 362.095 706.121 360.768 707.759 360.768 709.396 360.768 710.724 362.095 710.724 363.733Z" fill="#3B3B3B" fill-rule="nonzero" fill-opacity="1"/><path d="M710.724 342.483C710.724 344.121 709.396 345.448 707.759 345.448 706.121 345.448 704.793 344.121 704.793 342.483 704.793 340.845 706.121 339.518 707.759 339.518 709.396 339.518 710.724 340.845 710.724 342.483Z" fill="#3B3B3B" fill-rule="nonzero" fill-opacity="1"/><path d="M729.734 470.01C729.734 471.648 728.406 472.976 726.768 472.976 725.131 472.976 723.803 471.648 723.803 470.01 723.803 468.373 725.131 467.045 726.768 467.045 728.406 467.045 729.734 468.373 729.734 470.01Z" fill="#3B3B3B" fill-rule="nonzero" fill-opacity="1"/><path d="M729.734 448.761C729.734 450.398 728.406 451.726 726.768 451.726 725.131 451.726 723.803 450.398 723.803 448.761 723.803 447.123 725.131 445.795 726.768 445.795 728.406 445.795 729.734 447.123 729.734 448.761Z" fill="#3B3B3B" fill-rule="nonzero" fill-opacity="1"/><path d="M729.734 427.504C729.734 429.141 728.406 430.469 726.768 430.469 725.131 430.469 723.803 429.141 723.803 427.504 723.803 425.866 725.131 424.539 726.768 424.539 728.406 424.539 729.734 425.866 729.734 427.504Z" fill="#D4D4D4" fill-rule="nonzero" fill-opacity="0.5"/><path d="M729.734 406.247C729.734 407.884 728.406 409.212 726.768 409.212 725.131 409.212 723.803 407.884 723.803 406.247 723.803 404.609 725.131 403.282 726.768 403.282 728.406 403.282 729.734 404.609 729.734 406.247Z" fill="#D4D4D4" fill-rule="nonzero" fill-opacity="0.5"/><path d="M729.734 384.99C729.734 386.627 728.406 387.955 726.768 387.955 725.131 387.955 723.803 386.627 723.803 384.99 723.803 383.352 725.131 382.025 726.768 382.025 728.406 382.025 729.734 383.352 729.734 384.99Z" fill="#3B3B3B" fill-rule="nonzero" fill-opacity="1"/><path d="M729.734 363.733C729.734 365.37 728.406 366.698 726.768 366.698 725.131 366.698 723.803 365.37 723.803 363.733 723.803 362.095 725.131 360.768 726.768 360.768 728.406 360.768 729.734 362.095 729.734 363.733Z" fill="#D4D4D4" fill-rule="nonzero" fill-opacity="0.5"/><path d="M729.734 342.483C729.734 344.121 728.406 345.448 726.768 345.448 725.131 345.448 723.803 344.121 723.803 342.483 723.803 340.845 725.131 339.518 726.768 339.518 728.406 339.518 729.734 340.845 729.734 342.483Z" fill="#3B3B3B" fill-rule="nonzero" fill-opacity="1"/><path d="M748.736 470.01C748.736 471.648 747.408 472.976 745.771 472.976 744.133 472.976 742.805 471.648 742.805 470.01 742.805 468.373 744.133 467.045 745.771 467.045 747.408 467.045 748.736 468.373 748.736 470.01Z" fill="#3B3B3B" fill-rule="nonzero" fill-opacity="1"/><path d="M748.736 448.761C748.736 450.398 747.408 451.726 745.771 451.726 744.133 451.726 742.805 450.398 742.805 448.761 742.805 447.123 744.133 445.795 745.771 445.795 747.408 445.795 748.736 447.123 748.736 448.761Z" fill="#3B3B3B" fill-rule="nonzero" fill-opacity="1"/><path d="M748.736 427.504C748.736 429.141 747.408 430.469 745.771 430.469 744.133 430.469 742.805 429.141 742.805 427.504 742.805 425.866 744.133 424.539 745.771 424.539 747.408 424.539 748.736 425.866 748.736 427.504Z" fill="#3B3B3B" fill-rule="nonzero" fill-opacity="1"/><path d="M748.736 406.247C748.736 407.884 747.408 409.212 745.771 409.212 744.133 409.212 742.805 407.884 742.805 406.247 742.805 404.609 744.133 403.282 745.771 403.282 747.408 403.282 748.736 404.609 748.736 406.247Z" fill="#D4D4D4" fill-rule="nonzero" fill-opacity="0.5"/><path d="M748.736 384.99C748.736 386.627 747.408 387.955 745.771 387.955 744.133 387.955 742.805 386.627 742.805 384.99 742.805 383.352 744.133 382.025 745.771 382.025 747.408 382.025 748.736 383.352 748.736 384.99Z" fill="#3B3B3B" fill-rule="nonzero" fill-opacity="1"/><path d="M748.736 363.733C748.736 365.37 747.408 366.698 745.771 366.698 744.133 366.698 742.805 365.37 742.805 363.733 742.805 362.095 744.133 360.768 745.771 360.768 747.408 360.768 748.736 362.095 748.736 363.733Z" fill="#D4D4D4" fill-rule="nonzero" fill-opacity="0.5"/><path d="M748.736 342.483C748.736 344.121 747.408 345.448 745.771 345.448 744.133 345.448 742.805 344.121 742.805 342.483 742.805 340.845 744.133 339.518 745.771 339.518 747.408 339.518 748.736 340.845 748.736 342.483Z" fill="#3B3B3B" fill-rule="nonzero" fill-opacity="1"/><path d="M555.705 448.761 555.705 427.504" stroke="#3B3B3B" stroke-width="3.09575" stroke-linecap="butt" stroke-linejoin="round" stroke-miterlimit="10" stroke-opacity="1" fill="none" fill-rule="nonzero"/><path d="M574.714 448.761 574.714 384.99" stroke="#3B3B3B" stroke-width="3.09575" stroke-linecap="butt" stroke-linejoin="round" stroke-miterlimit="10" stroke-opacity="1" fill="none" fill-rule="nonzero"/><path d="M593.716 470.01 593.716 448.761 593.716 406.247 593.716 384.99" stroke="#3B3B3B" stroke-width="3.09575" stroke-linecap="butt" stroke-linejoin="round" stroke-miterlimit="10" stroke-opacity="1" fill="none" fill-rule="nonzero"/><path d="M612.726 470.01 612.726 448.761 612.726 342.483" stroke="#3B3B3B" stroke-width="3.09575" stroke-linecap="butt" stroke-linejoin="round" stroke-miterlimit="10" stroke-opacity="1" fill="none" fill-rule="nonzero"/><path d="M631.735 470.01 631.735 448.761 631.735 427.504 631.735 384.99" stroke="#3B3B3B" stroke-width="3.09575" stroke-linecap="butt" stroke-linejoin="round" stroke-miterlimit="10" stroke-opacity="1" fill="none" fill-rule="nonzero"/><path d="M650.737 470.01 650.737 448.761 650.737 427.504 650.737 406.247" stroke="#3B3B3B" stroke-width="3.09575" stroke-linecap="butt" stroke-linejoin="round" stroke-miterlimit="10" stroke-opacity="1" fill="none" fill-rule="nonzero"/><path d="M669.747 448.761 669.747 363.733" stroke="#3B3B3B" stroke-width="3.09575" stroke-linecap="butt" stroke-linejoin="round" stroke-miterlimit="10" stroke-opacity="1" fill="none" fill-rule="nonzero"/><path d="M688.749 470.01 688.749 448.761 688.749 406.247 688.749 384.99 688.749 342.483" stroke="#3B3B3B" stroke-width="3.09575" stroke-linecap="butt" stroke-linejoin="round" stroke-miterlimit="10" stroke-opacity="1" fill="none" fill-rule="nonzero"/><path d="M707.759 470.01 707.759 448.761 707.759 406.247 707.759 384.99 707.759 363.733 707.759 342.483" stroke="#3B3B3B" stroke-width="3.09575" stroke-linecap="butt" stroke-linejoin="round" stroke-miterlimit="10" stroke-opacity="1" fill="none" fill-rule="nonzero"/><path d="M726.768 470.01 726.768 448.761 726.768 384.99 726.768 342.483" stroke="#3B3B3B" stroke-width="3.09575" stroke-linecap="butt" stroke-linejoin="round" stroke-miterlimit="10" stroke-opacity="1" fill="none" fill-rule="nonzero"/><path d="M384.641 470.01 384.641 448.761 384.641 427.504 384.641 406.247 384.641 384.99 384.641 363.733 384.641 342.483" stroke="#3B3B3B" stroke-width="3.09575" stroke-linecap="butt" stroke-linejoin="round" stroke-miterlimit="10" stroke-opacity="1" fill="none" fill-rule="nonzero"/><path d="M745.771 470.01 745.771 448.761 745.771 427.504 745.771 384.99 745.771 342.483" stroke="#3B3B3B" stroke-width="3.09575" stroke-linecap="butt" stroke-linejoin="round" stroke-miterlimit="10" stroke-opacity="1" fill="none" fill-rule="nonzero"/><path d="M422.66 470.01 422.66 448.761 422.66 427.504 422.66 406.247 422.66 384.99 422.66 342.483" stroke="#3B3B3B" stroke-width="3.09575" stroke-linecap="butt" stroke-linejoin="round" stroke-miterlimit="10" stroke-opacity="1" fill="none" fill-rule="nonzero"/><path d="M441.662 470.01 441.662 448.761 441.662 384.99" stroke="#3B3B3B" stroke-width="3.09575" stroke-linecap="butt" stroke-linejoin="round" stroke-miterlimit="10" stroke-opacity="1" fill="none" fill-rule="nonzero"/><path d="M460.672 470.01 460.672 448.761 460.672 427.504 460.672 406.247 460.672 384.99" stroke="#3B3B3B" stroke-width="3.09575" stroke-linecap="butt" stroke-linejoin="round" stroke-miterlimit="10" stroke-opacity="1" fill="none" fill-rule="nonzero"/><path d="M479.674 470.01 479.674 448.761 479.674 406.247" stroke="#3B3B3B" stroke-width="3.09575" stroke-linecap="butt" stroke-linejoin="round" stroke-miterlimit="10" stroke-opacity="1" fill="none" fill-rule="nonzero"/><path d="M498.683 448.761 498.683 342.483" stroke="#3B3B3B" stroke-width="3.09575" stroke-linecap="butt" stroke-linejoin="round" stroke-miterlimit="10" stroke-opacity="1" fill="none" fill-rule="nonzero"/><path d="M517.693 470.01 517.693 448.761 517.693 427.504" stroke="#3B3B3B" stroke-width="3.09575" stroke-linecap="butt" stroke-linejoin="round" stroke-miterlimit="10" stroke-opacity="1" fill="none" fill-rule="nonzero"/><path d="M536.695 448.761 536.695 406.247" stroke="#3B3B3B" stroke-width="3.09575" stroke-linecap="butt" stroke-linejoin="round" stroke-miterlimit="10" stroke-opacity="1" fill="none" fill-rule="nonzero"/></g><g><text fill="#000000" fill-opacity="1" font-family="Arial,Arial_MSFontService,sans-serif" font-style="normal" font-variant="normal" font-weight="400" font-stretch="normal" font-size="11" text-anchor="start" direction="ltr" writing-mode="lr-tb" unicode-bidi="normal" text-decoration="none" transform="matrix(0.725 0 0 0.725 322.16 473)">Join &amp; Call</text><text fill="#000000" fill-opacity="1" font-family="Arial,Arial_MSFontService,sans-serif" font-style="normal" font-variant="normal" font-weight="400" font-stretch="normal" font-size="11" text-anchor="start" direction="ltr" writing-mode="lr-tb" unicode-bidi="normal" text-decoration="none" transform="matrix(0.725 0 0 0.725 322.16 452)">Call &amp; Join</text><text fill="#000000" fill-opacity="1" font-family="Arial,Arial_MSFontService,sans-serif" font-style="normal" font-variant="normal" font-weight="400" font-stretch="normal" font-size="11" text-anchor="start" direction="ltr" writing-mode="lr-tb" unicode-bidi="normal" text-decoration="none" transform="matrix(0.725 0 0 0.725 331.571 430)">B31</text><text fill="#000000" fill-opacity="1" font-family="Arial,Arial_MSFontService,sans-serif" font-style="normal" font-variant="normal" font-weight="400" font-stretch="normal" font-size="11" text-anchor="start" direction="ltr" writing-mode="lr-tb" unicode-bidi="normal" text-decoration="none" transform="matrix(0.725 0 0 0.725 331.571 409)">B32</text><text fill="#000000" fill-opacity="1" font-family="Arial,Arial_MSFontService,sans-serif" font-style="normal" font-variant="normal" font-weight="400" font-stretch="normal" font-size="11" text-anchor="start" direction="ltr" writing-mode="lr-tb" unicode-bidi="normal" text-decoration="none" transform="matrix(0.725 0 0 0.725 331.571 388)">B33</text><text fill="#000000" fill-opacity="1" font-family="Arial,Arial_MSFontService,sans-serif" font-style="normal" font-variant="normal" font-weight="400" font-stretch="normal" font-size="11" text-anchor="start" direction="ltr" writing-mode="lr-tb" unicode-bidi="normal" text-decoration="none" transform="matrix(0.725 0 0 0.725 331.571 367)">B34</text><text fill="#000000" fill-opacity="1" font-family="Arial,Arial_MSFontService,sans-serif" font-style="normal" font-variant="normal" font-weight="400" font-stretch="normal" font-size="11" text-anchor="start" direction="ltr" writing-mode="lr-tb" unicode-bidi="normal" text-decoration="none" transform="matrix(0.725 0 0 0.725 331.571 345)">B35</text></g><g><path d="M190 333 306 333 306 507 190 507Z" stroke="#FFFFFF" stroke-width="0.77575" stroke-linecap="round" stroke-linejoin="round" stroke-miterlimit="10" stroke-opacity="1" fill="#FFFFFF" fill-rule="nonzero" fill-opacity="1"/></g><g><path d="M195.22 331.855 319.572 331.855 319.572 480.646 195.22 480.646Z" fill="#FFFFFF" fill-rule="nonzero" fill-opacity="1"/><path d="M200.875 465.762 313.924 465.762 313.924 474.266 200.875 474.266Z" stroke="#15918A" stroke-width="0.77575" stroke-linecap="butt" stroke-linejoin="miter" stroke-miterlimit="10" stroke-opacity="1" fill="#15918A" fill-rule="nonzero" fill-opacity="1"/><path d="M205.892 444.505 313.917 444.505 313.917 453.009 205.892 453.009Z" stroke="#15918A" stroke-width="0.77575" stroke-linecap="butt" stroke-linejoin="miter" stroke-miterlimit="10" stroke-opacity="1" fill="#15918A" fill-rule="nonzero" fill-opacity="1"/><path d="M242.671 423.248 313.917 423.248 313.917 431.752 242.671 431.752Z" stroke="#15918A" stroke-width="0.77575" stroke-linecap="butt" stroke-linejoin="miter" stroke-miterlimit="10" stroke-opacity="1" fill="#15918A" fill-rule="nonzero" fill-opacity="1"/><path d="M240.206 401.998 313.917 401.998 313.917 410.503 240.206 410.503Z" stroke="#15918A" stroke-width="0.77575" stroke-linecap="butt" stroke-linejoin="miter" stroke-miterlimit="10" stroke-opacity="1" fill="#15918A" fill-rule="nonzero" fill-opacity="1"/><path d="M237.444 380.741 313.924 380.741 313.924 389.246 237.444 389.246Z" stroke="#15918A" stroke-width="0.77575" stroke-linecap="butt" stroke-linejoin="miter" stroke-miterlimit="10" stroke-opacity="1" fill="#15918A" fill-rule="nonzero" fill-opacity="1"/><path d="M260.941 359.484 313.917 359.484 313.917 367.989 260.941 367.989Z" stroke="#15918A" stroke-width="0.77575" stroke-linecap="butt" stroke-linejoin="miter" stroke-miterlimit="10" stroke-opacity="1" fill="#15918A" fill-rule="nonzero" fill-opacity="1"/><path d="M244.904 338.227 313.924 338.227 313.924 346.732 244.904 346.732Z" stroke="#15918A" stroke-width="0.77575" stroke-linecap="butt" stroke-linejoin="miter" stroke-miterlimit="10" stroke-opacity="1" fill="#15918A" fill-rule="nonzero" fill-opacity="1"/></g><g><path d="M195.22 480.639 319.572 480.639" stroke="#000000" stroke-width="0.464" stroke-linecap="butt" stroke-linejoin="round" stroke-miterlimit="10" stroke-opacity="1" fill="none" fill-rule="nonzero"/><path d="M313.917 482.626 313.917 480.639" stroke="#333333" stroke-width="0.77575" stroke-linecap="butt" stroke-linejoin="round" stroke-miterlimit="10" stroke-opacity="1" fill="none" fill-rule="nonzero"/><path d="M286.838 482.626 286.838 480.639" stroke="#333333" stroke-width="0.77575" stroke-linecap="butt" stroke-linejoin="round" stroke-miterlimit="10" stroke-opacity="1" fill="none" fill-rule="nonzero"/><path d="M259.767 482.626 259.767 480.639" stroke="#333333" stroke-width="0.77575" stroke-linecap="butt" stroke-linejoin="round" stroke-miterlimit="10" stroke-opacity="1" fill="none" fill-rule="nonzero"/><path d="M232.688 482.626 232.688 480.639" stroke="#333333" stroke-width="0.77575" stroke-linecap="butt" stroke-linejoin="round" stroke-miterlimit="10" stroke-opacity="1" fill="none" fill-rule="nonzero"/><path d="M205.609 482.626 205.609 480.639" stroke="#333333" stroke-width="0.77575" stroke-linecap="butt" stroke-linejoin="round" stroke-miterlimit="10" stroke-opacity="1" fill="none" fill-rule="nonzero"/><text fill="#4D4D4D" fill-opacity="1" font-family="Arial,Arial_MSFontService,sans-serif" font-style="normal" font-variant="normal" font-weight="400" font-stretch="normal" font-size="11" text-anchor="start" direction="ltr" writing-mode="lr-tb" unicode-bidi="normal" text-decoration="none" transform="matrix(0.725 0 0 0.725 311.742 490)">0</text><text fill="#4D4D4D" fill-opacity="1" font-family="Arial,Arial_MSFontService,sans-serif" font-style="normal" font-variant="normal" font-weight="400" font-stretch="normal" font-size="11" text-anchor="start" direction="ltr" writing-mode="lr-tb" unicode-bidi="normal" text-decoration="none" transform="matrix(0.725 0 0 0.725 275.601 490)">10000</text><text fill="#4D4D4D" fill-opacity="1" font-family="Arial,Arial_MSFontService,sans-serif" font-style="normal" font-variant="normal" font-weight="400" font-stretch="normal" font-size="11" text-anchor="start" direction="ltr" writing-mode="lr-tb" unicode-bidi="normal" text-decoration="none" transform="matrix(0.725 0 0 0.725 248.529 490)">20000</text><text fill="#4D4D4D" fill-opacity="1" font-family="Arial,Arial_MSFontService,sans-serif" font-style="normal" font-variant="normal" font-weight="400" font-stretch="normal" font-size="11" text-anchor="start" direction="ltr" writing-mode="lr-tb" unicode-bidi="normal" text-decoration="none" transform="matrix(0.725 0 0 0.725 221.451 490)">30000</text><text fill="#4D4D4D" fill-opacity="1" font-family="Arial,Arial_MSFontService,sans-serif" font-style="normal" font-variant="normal" font-weight="400" font-stretch="normal" font-size="11" text-anchor="start" direction="ltr" writing-mode="lr-tb" unicode-bidi="normal" text-decoration="none" transform="matrix(0.725 0 0 0.725 194.372 490)">40000</text><text fill="#000000" fill-opacity="1" font-family="Arial,Arial_MSFontService,sans-serif" font-style="normal" font-variant="normal" font-weight="400" font-stretch="normal" font-size="12" text-anchor="start" direction="ltr" writing-mode="lr-tb" unicode-bidi="normal" text-decoration="none" transform="matrix(0.725 0 0 0.725 230.571 500)">Total isoforms</text><text fill="#000000" fill-opacity="1" font-family="Arial,Arial_MSFontService,sans-serif" font-style="normal" font-variant="normal" font-weight="400" font-stretch="normal" font-size="20" text-anchor="start" direction="ltr" writing-mode="lr-tb" unicode-bidi="normal" text-decoration="none" transform="matrix(0.725 0 0 0.725 544.888 99)">BRAIN</text></g></g></g></g></g></g></svg>